<svg width="84" height="84" viewBox="0 0 84 84" fill="none" xmlns="http://www.w3.org/2000/svg">
<rect width="84" height="84" rx="42" fill="black"/>
<g clip-path="url(#clip0_474_1225)">
<path fill-rule="evenodd" clip-rule="evenodd" d="M20.3864 39.0589C20.8058 39.0589 21.2 39.1402 21.5688 39.3026C21.9407 39.4621 22.2649 39.6855 22.5415 39.9727C22.8212 40.2569 23.0428 40.5992 23.2064 40.9995C23.373 41.3998 23.4563 41.8334 23.4563 42.3004C23.4563 42.7674 23.373 43.1982 23.2064 43.5927C23.0428 43.9872 22.8212 44.3294 22.5415 44.6195C22.2619 44.9067 21.9362 45.1329 21.5644 45.2983C21.1955 45.4607 20.8029 45.5419 20.3864 45.5419C19.97 45.5419 19.5758 45.4607 19.204 45.2983C18.8351 45.1329 18.5109 44.9067 18.2313 44.6195C17.9517 44.3323 17.7315 43.9915 17.5709 43.597C17.4103 43.2025 17.33 42.7703 17.33 42.3004C17.33 41.8856 17.4103 41.4824 17.5709 41.0909C17.7315 40.6964 17.9531 40.3483 18.2357 40.0466C18.5183 39.7449 18.8441 39.5056 19.2129 39.3287C19.5847 39.1489 19.9759 39.0589 20.3864 39.0589V39.0589ZM12.4932 29.3171V42.3004C12.4932 43.4549 12.6984 44.5165 13.1089 45.4854C13.5224 46.4513 14.0876 47.2867 14.8045 47.9915C15.5243 48.6964 16.3632 49.2461 17.321 49.6405C18.2789 50.035 19.3007 50.2323 20.3864 50.2323C21.4781 50.2323 22.5029 50.0408 23.4607 49.658C24.4215 49.2722 25.2589 48.7283 25.9728 48.0263C26.6867 47.3244 27.2489 46.4875 27.6594 45.5158C28.0729 44.5412 28.2797 43.4694 28.2797 42.3004C28.2797 41.1547 28.0729 40.0988 27.6594 39.1329C27.2489 38.1641 26.6867 37.3229 25.9728 36.6093C25.2619 35.8958 24.426 35.3403 23.4652 34.9429C22.5073 34.5426 21.4811 34.3425 20.3864 34.3425C20.0205 34.3425 19.6457 34.3787 19.262 34.4512C18.8812 34.5209 18.5094 34.6238 18.1465 34.7602C17.7836 34.8965 17.44 35.0749 17.1158 35.2953C17.0385 35.3479 16.9755 35.4 16.9268 35.4517L17.3032 29.3171H12.4932Z" fill="white"/>
<path fill-rule="evenodd" clip-rule="evenodd" d="M28.9712 34.8776V43.1619C28.9712 44.2352 29.1526 45.2098 29.5156 46.0858C29.8785 46.9589 30.3797 47.7029 31.0192 48.3178C31.6588 48.9299 32.401 49.4027 33.2458 49.7363C34.0936 50.0669 34.9964 50.2323 35.9542 50.2323C36.2173 50.2323 36.4741 50.2067 36.7245 50.1557C36.519 50.2899 36.2994 50.3967 36.0658 50.4759C35.7921 50.5717 35.511 50.6195 35.2224 50.6195L32.6122 50.5847V55.2881L35.0529 55.3229C36.1446 55.3229 37.1664 55.1213 38.1183 54.7181C39.0702 54.315 39.9046 53.7667 40.6215 53.0735C41.3384 52.3802 41.9035 51.568 42.317 50.6369C42.7305 49.7087 42.9417 48.7152 42.9506 47.6565V34.8776H38.1272V43.1619C38.1272 43.4665 38.0677 43.7638 37.9487 44.0539C37.8327 44.341 37.6721 44.5992 37.4668 44.8283C37.2646 45.0575 37.0325 45.2388 36.7708 45.3722C36.509 45.5027 36.2368 45.568 35.9542 45.568C35.6389 45.568 35.3489 45.5201 35.0841 45.4244C34.8224 45.3287 34.5948 45.1851 34.4014 44.9937C34.2111 44.8022 34.0549 44.5557 33.9329 44.254C33.8139 43.9523 33.7545 43.5883 33.7545 43.1619V34.8776H28.9712Z" fill="white"/>
<path fill-rule="evenodd" clip-rule="evenodd" d="M63.7303 39.0589C63.8874 39.0589 64.0312 39.0661 64.1618 39.0806L60.8359 43.4738C60.8099 43.3745 60.7856 43.2676 60.763 43.1532C60.7363 42.9995 60.7169 42.8487 60.705 42.7007C60.6931 42.5499 60.6872 42.4165 60.6872 42.3004C60.6872 41.787 60.7675 41.3316 60.9281 40.9342C61.0888 40.5339 61.3044 40.196 61.5751 39.9204C61.8488 39.6449 62.1701 39.4331 62.5389 39.2852C62.9078 39.1344 63.3049 39.0589 63.7303 39.0589V39.0589ZM45.3692 29.3171V34.9037H43.5889V39.568H45.3692V43.1619C45.3692 44.0988 45.5507 44.9806 45.9136 45.8073C46.2794 46.6311 46.7807 47.3534 47.4173 47.9741C48.0538 48.5949 48.7945 49.0836 49.6393 49.4404C50.4871 49.7943 51.3914 49.9712 52.3522 49.9712H55.6942V45.307H52.3522C52.0488 45.307 51.7617 45.2504 51.491 45.1373C51.2203 45.0212 50.9854 44.8675 50.7861 44.6761C50.5897 44.4817 50.435 44.2555 50.322 43.9973C50.209 43.7392 50.1524 43.4607 50.1524 43.1619V39.568H55.6942V34.9037H50.1524V29.3171H45.3692ZM63.7303 34.3425C62.6475 34.3425 61.6272 34.5354 60.6693 34.9212C59.7115 35.304 58.8727 35.8436 58.1528 36.5397C57.4329 37.2359 56.8662 38.0756 56.4528 39.0589C56.0423 40.0423 55.837 41.1228 55.837 42.3004C55.837 43.4549 56.0423 44.5165 56.4528 45.4854C56.8662 46.4513 57.4314 47.2867 58.1483 47.9915C58.8682 48.6964 59.7071 49.2461 60.6649 49.6405C61.6227 50.035 62.6445 50.2323 63.7303 50.2323C64.3728 50.2323 64.999 50.1598 65.6088 50.0147C66.2215 49.8697 66.8046 49.6565 67.3579 49.3751C67.9141 49.0938 68.4302 48.7515 68.9062 48.3483C69.3821 47.9422 69.8938 47.3592 70.4411 46.5992L66.8403 43.0662C66.4952 43.8262 66.2275 44.3135 66.0371 44.5281C65.8467 44.7428 65.6296 44.9255 65.3857 45.0764C65.1417 45.2243 64.88 45.3389 64.6004 45.4201C64.3207 45.5013 64.0307 45.5419 63.7303 45.5419C63.6468 45.5419 63.5653 45.54 63.4858 45.5361L70.4456 37.9668C69.9131 37.2301 69.4059 36.6586 68.924 36.2526C68.4451 35.8436 67.929 35.4984 67.3757 35.217C66.8224 34.9357 66.2379 34.7196 65.6222 34.5687C65.0064 34.4179 64.3758 34.3425 63.7303 34.3425V34.3425Z" fill="white"/>
<path fill-rule="evenodd" clip-rule="evenodd" d="M57.5308 32.625C58.5284 34.7616 60.815 36.1847 63.2992 36.2148C65.7834 36.2449 67.9615 34.876 68.7938 32.7615L67.9181 32.4362C67.2251 34.1947 65.3988 35.3294 63.3061 35.3015C61.2135 35.2736 59.2759 34.0888 58.413 32.3095L57.5308 32.625Z" fill="white"/>
<path fill-rule="evenodd" clip-rule="evenodd" d="M55.3896 36.9266C55.3896 32.5394 59.0359 28.9829 63.5338 28.9829C68.0318 28.9829 71.678 32.5394 71.678 36.9266C69.7555 34.4263 66.7381 32.9548 63.5338 32.9548C60.3295 32.9548 57.3122 34.4263 55.3896 36.9266Z" fill="white"/>
<path fill-rule="evenodd" clip-rule="evenodd" d="M62.3799 30.3457L63.1492 30.3457L63.5339 29.6962L63.9186 30.3457L64.688 30.3457L64.3033 30.9952L64.688 31.6447L63.9186 31.6447L63.5339 32.2941L63.1492 31.6447L62.3799 31.6447L62.7645 30.9952L62.3799 30.3457Z" fill="white"/>
<path d="M55.3894 36.9266C54.7931 36.9266 54.495 37.4116 54.1969 37.8965C53.8988 38.3815 53.6006 38.8665 53.0044 38.8665" stroke="white" stroke-width="2" stroke-miterlimit="10" stroke-linejoin="round"/>
<path d="M55.3896 36.9266C54.862 36.9266 54.3345 38.112 54.3345 39.2973" stroke="white" stroke-width="2" stroke-miterlimit="10" stroke-linejoin="round"/>
<path d="M71.6777 36.9266C72.3647 36.9266 73.0516 37.8965 73.0516 38.8665" stroke="white" stroke-width="2" stroke-miterlimit="10" stroke-linejoin="round"/>
<path d="M71.6777 36.9266C72.3328 36.9266 72.6603 37.3248 72.9878 37.7229C73.3154 38.1211 73.6429 38.5192 74.2979 38.5192" stroke="white" stroke-width="2" stroke-miterlimit="10" stroke-linejoin="round"/>
<path fill-rule="evenodd" clip-rule="evenodd" d="M58.8594 31.8482C58.8594 31.4085 59.225 31.0519 59.676 31.0519C59.8926 31.0519 60.1003 31.1358 60.2534 31.2852C60.4066 31.4345 60.4926 31.6371 60.4926 31.8482C60.4926 32.288 60.127 32.6445 59.676 32.6445C59.225 32.6445 58.8594 32.288 58.8594 31.8482V31.8482Z" fill="white"/>
<path d="M60.2535 31.2852L59.0986 32.4113M59.0986 31.2852L60.2535 32.4113L59.0986 31.2852Z" stroke="white" stroke-miterlimit="10" stroke-linejoin="round"/>
<path fill-rule="evenodd" clip-rule="evenodd" d="M58.8594 31.8482C58.8594 31.4085 59.225 31.0519 59.676 31.0519C59.8926 31.0519 60.1003 31.1358 60.2534 31.2852C60.4066 31.4345 60.4926 31.6371 60.4926 31.8482C60.4926 32.288 60.127 32.6445 59.676 32.6445C59.225 32.6445 58.8594 32.288 58.8594 31.8482V31.8482Z" stroke="white" stroke-miterlimit="10" stroke-linejoin="round"/>
<path fill-rule="evenodd" clip-rule="evenodd" d="M66.5757 31.8482C66.5757 31.4085 66.9413 31.0519 67.3923 31.0519C67.6089 31.0519 67.8166 31.1358 67.9697 31.2852C68.1229 31.4345 68.2089 31.6371 68.2089 31.8482C68.2089 32.288 67.8433 32.6445 67.3923 32.6445C66.9413 32.6445 66.5757 32.288 66.5757 31.8482V31.8482Z" fill="white"/>
<path d="M67.9693 31.2852L66.8145 32.4113M66.8145 31.2852L67.9693 32.4113L66.8145 31.2852Z" stroke="white" stroke-miterlimit="10" stroke-linejoin="round"/>
<path fill-rule="evenodd" clip-rule="evenodd" d="M66.5757 31.8482C66.5757 31.4085 66.9413 31.0519 67.3923 31.0519C67.6089 31.0519 67.8166 31.1358 67.9697 31.2852C68.1229 31.4345 68.2089 31.6371 68.2089 31.8482C68.2089 32.288 67.8433 32.6445 67.3923 32.6445C66.9413 32.6445 66.5757 32.288 66.5757 31.8482V31.8482Z" stroke="white" stroke-miterlimit="10" stroke-linejoin="round"/>
<path fill-rule="evenodd" clip-rule="evenodd" d="M43.5547 52.9175C43.4479 52.9175 43.3479 52.9371 43.2546 52.9762C43.1614 53.0148 43.0802 53.0679 43.011 53.1353C42.9418 53.2028 42.8871 53.282 42.847 53.3729C42.8074 53.4639 42.7876 53.5614 42.7876 53.6656C42.7876 53.7697 42.8074 53.8672 42.847 53.9582C42.8871 54.0491 42.9418 54.1288 43.011 54.1973C43.0802 54.2652 43.1614 54.319 43.2546 54.3586C43.3479 54.3982 43.4479 54.418 43.5547 54.418H44.1955C44.2376 54.418 44.2737 54.4246 44.3038 54.4378C44.3339 54.451 44.3489 54.4789 44.3489 54.5214C44.3489 54.5625 44.3339 54.5977 44.3038 54.627C44.2737 54.6564 44.2376 54.671 44.1955 54.671H42.7876V55.2695H44.1955C44.3008 55.2695 44.4 55.2502 44.4933 55.2115C44.5866 55.1724 44.6678 55.1189 44.737 55.0509C44.8062 54.9825 44.8611 54.9033 44.9017 54.8133C44.9423 54.7228 44.9626 54.6256 44.9626 54.5214C44.9626 54.4187 44.9423 54.3241 44.9017 54.2376C44.8611 54.1511 44.8062 54.077 44.737 54.0154C44.6678 53.9538 44.5866 53.9059 44.4933 53.8716C44.4 53.8369 44.3008 53.8196 44.1955 53.8196H43.5547C43.5126 53.8196 43.4765 53.8047 43.4464 53.7748C43.4163 53.7445 43.4013 53.7081 43.4013 53.6656C43.4013 53.6245 43.4163 53.5893 43.4464 53.56C43.4765 53.5306 43.5126 53.516 43.5547 53.516H44.8024V52.9175H43.5547Z" fill="white"/>
<path fill-rule="evenodd" clip-rule="evenodd" d="M46.3953 53.4302C46.4254 53.4302 46.4542 53.4316 46.4818 53.4346C46.5099 53.4375 46.5382 53.4441 46.5668 53.4544L45.8493 54.3828C45.8373 54.3623 45.8275 54.3388 45.82 54.3124C45.8124 54.286 45.8059 54.2586 45.8004 54.2303C45.7954 54.2014 45.7916 54.1731 45.7891 54.1452C45.7871 54.1173 45.7861 54.0924 45.7861 54.0704C45.7861 53.9721 45.8019 53.8839 45.8335 53.8057C45.8651 53.7269 45.9082 53.6597 45.9628 53.604C46.018 53.5482 46.0827 53.5055 46.1569 53.4756C46.2316 53.4453 46.3111 53.4302 46.3953 53.4302V53.4302ZM46.3953 52.8229C46.2253 52.8229 46.0654 52.853 45.9155 52.9131C45.7661 52.9733 45.6352 53.0576 45.5229 53.1662C45.4111 53.2747 45.3228 53.406 45.2582 53.56C45.1935 53.714 45.1611 53.8841 45.1611 54.0704C45.1611 54.2523 45.1935 54.4192 45.2582 54.5713C45.3228 54.7229 45.4111 54.8536 45.5229 54.9637C45.6352 55.0737 45.7661 55.1595 45.9155 55.2211C46.0654 55.2827 46.2253 55.3135 46.3953 55.3135C46.4961 55.3135 46.5941 55.302 46.6894 55.279C46.7851 55.2565 46.8761 55.2233 46.9624 55.1793C47.0491 55.1353 47.1296 55.0817 47.2038 55.0187C47.2785 54.9556 47.3444 54.8844 47.4016 54.8052L46.9503 54.363C46.9263 54.4158 46.8949 54.464 46.8563 54.5075C46.8182 54.5505 46.7746 54.5872 46.7255 54.6175C46.6768 54.6473 46.6247 54.6703 46.569 54.6864C46.5134 54.7026 46.4555 54.7106 46.3953 54.7106C46.3712 54.7106 46.3472 54.7097 46.3231 54.7077C46.299 54.7053 46.275 54.7004 46.2509 54.693L47.4061 53.3356C47.3489 53.2564 47.2827 53.185 47.2075 53.1214C47.1323 53.0574 47.0514 53.0033 46.9646 52.9593C46.8784 52.9153 46.7871 52.8816 46.6909 52.8581C46.5946 52.8347 46.4961 52.8229 46.3953 52.8229V52.8229Z" fill="white"/>
<path fill-rule="evenodd" clip-rule="evenodd" d="M47.7148 52.9131V55.2695H48.3308V53.9714C48.3308 53.9083 48.3428 53.8489 48.3669 53.7932C48.391 53.7374 48.4241 53.689 48.4662 53.648C48.5083 53.6069 48.5579 53.5746 48.6151 53.5512C48.6722 53.5277 48.7332 53.516 48.7978 53.516H49.3416V52.9175H48.7978C48.6625 52.9175 48.5316 52.9415 48.4053 52.9894C48.2789 53.0368 48.1661 53.1045 48.0668 53.1925L47.8638 52.9131H47.7148Z" fill="white"/>
<path fill-rule="evenodd" clip-rule="evenodd" d="M49.9397 51.8724C49.8826 51.8724 49.8287 51.8832 49.778 51.9047C49.7279 51.9257 49.6843 51.9543 49.6472 51.9905C49.6106 52.0262 49.5813 52.0687 49.5592 52.1181C49.5376 52.167 49.5269 52.2186 49.5269 52.2729C49.5269 52.3286 49.5376 52.3807 49.5592 52.4291C49.5813 52.4775 49.6106 52.5198 49.6472 52.5559C49.6843 52.5916 49.7279 52.6202 49.778 52.6418C49.8287 52.6628 49.8826 52.6733 49.9397 52.6733C49.9969 52.6733 50.0506 52.6628 50.1007 52.6418C50.1513 52.6202 50.1955 52.5916 50.2331 52.5559C50.2707 52.5198 50.3002 52.4775 50.3218 52.4291C50.3439 52.3807 50.3549 52.3286 50.3549 52.2729C50.3549 52.2186 50.3439 52.167 50.3218 52.1181C50.3002 52.0687 50.2707 52.0262 50.2331 51.9905C50.1955 51.9543 50.1513 51.9257 50.1007 51.9047C50.0506 51.8832 49.9969 51.8724 49.9397 51.8724ZM49.6284 52.9131V55.2695H50.2488V52.9131H49.6284Z" fill="white"/>
<path fill-rule="evenodd" clip-rule="evenodd" d="M51.8191 53.4302C51.9034 53.4302 51.9826 53.4482 52.0568 53.4844C52.1315 53.5201 52.1967 53.5678 52.2523 53.6274C52.308 53.6866 52.3518 53.7548 52.3839 53.832C52.4165 53.9088 52.4328 53.9883 52.4328 54.0704C52.4328 54.1525 52.4165 54.2322 52.3839 54.3095C52.3518 54.3862 52.308 54.4544 52.2523 54.5141C52.1967 54.5732 52.1315 54.6209 52.0568 54.6571C51.9826 54.6928 51.9034 54.7106 51.8191 54.7106C51.7349 54.7106 51.6554 54.6938 51.5807 54.66C51.5065 54.6263 51.4418 54.5801 51.3867 54.5214C51.332 54.4627 51.2889 54.3945 51.2573 54.3168C51.2257 54.2391 51.2099 54.1569 51.2099 54.0704C51.2099 53.9707 51.2257 53.8812 51.2573 53.802C51.2889 53.7228 51.332 53.6558 51.3867 53.601C51.4418 53.5458 51.5065 53.5035 51.5807 53.4742C51.6554 53.4448 51.7349 53.4302 51.8191 53.4302V53.4302ZM52.4328 51.9759V53.0759C52.3997 53.029 52.3591 52.9894 52.311 52.9571C52.2628 52.9249 52.2112 52.8989 52.156 52.8794C52.1014 52.8593 52.045 52.8449 51.9868 52.8361C51.9292 52.8273 51.8733 52.8229 51.8191 52.8229C51.6491 52.8229 51.4892 52.8544 51.3393 52.9175C51.1899 52.9806 51.059 53.0679 50.9467 53.1793C50.8349 53.2908 50.7467 53.4228 50.682 53.5754C50.6173 53.7279 50.585 53.8929 50.585 54.0704C50.585 54.2493 50.6173 54.4148 50.682 54.5669C50.7467 54.7185 50.8349 54.8497 50.9467 54.9607C51.059 55.0712 51.1899 55.1577 51.3393 55.2203C51.4892 55.2824 51.6491 55.3135 51.8191 55.3135C51.8973 55.3135 51.9743 55.3039 52.05 55.2849C52.1262 55.2658 52.2004 55.2399 52.2726 55.2071C52.3448 55.1739 52.4135 55.135 52.4787 55.0905C52.5444 55.0455 52.6065 54.9974 52.6652 54.946L52.9044 55.2695H53.0533V51.9759H52.4328Z" fill="white"/>
<path fill-rule="evenodd" clip-rule="evenodd" d="M55.0299 51.7096L54.3598 52.3191L54.6148 52.6469L55.4 52.1695L55.0299 51.7096V51.7096ZM54.6238 53.4301C54.708 53.4301 54.7873 53.4453 54.8615 53.4756C54.9362 53.5054 55.0013 53.5487 55.057 53.6054C55.1127 53.6616 55.1565 53.7291 55.1886 53.8078C55.2212 53.8861 55.2375 53.9736 55.2375 54.0704C55.2375 54.1657 55.2212 54.253 55.1886 54.3322C55.1565 54.4114 55.1127 54.4789 55.057 54.5346C55.0013 54.5903 54.9362 54.6336 54.8615 54.6644C54.7873 54.6952 54.708 54.7106 54.6238 54.7106C54.5396 54.7106 54.4601 54.6942 54.3854 54.6615C54.3112 54.6282 54.2465 54.583 54.1914 54.5258C54.1367 54.4686 54.0936 54.4011 54.062 54.3234C54.0304 54.2457 54.0146 54.1613 54.0146 54.0704C54.0146 53.9736 54.0304 53.8861 54.062 53.8078C54.0936 53.7291 54.1367 53.6616 54.1914 53.6054C54.2465 53.5487 54.3112 53.5054 54.3854 53.4756C54.4601 53.4453 54.5396 53.4301 54.6238 53.4301V53.4301ZM54.6238 52.8229C54.4538 52.8229 54.2939 52.8544 54.144 52.9175C53.9946 52.9806 53.8637 53.0676 53.7514 53.1786C53.6396 53.2891 53.5513 53.4206 53.4867 53.5731C53.422 53.7257 53.3896 53.8914 53.3896 54.0704C53.3896 54.2464 53.422 54.4104 53.4867 54.5625C53.5513 54.714 53.6396 54.8453 53.7514 54.9563C53.8637 55.0668 53.9946 55.1541 54.144 55.2181C54.2939 55.2817 54.4538 55.3135 54.6238 55.3135C54.7953 55.3135 54.9557 55.2817 55.1051 55.2181C55.2551 55.1541 55.3857 55.0668 55.497 54.9563C55.6083 54.8453 55.6963 54.714 55.7609 54.5625C55.8256 54.4104 55.858 54.2464 55.858 54.0704C55.858 53.8826 55.8256 53.7122 55.7609 53.5592C55.6963 53.4057 55.6083 53.2744 55.497 53.1654C55.3857 53.0559 55.2551 52.9715 55.1051 52.9124C54.9557 52.8527 54.7953 52.8229 54.6238 52.8229V52.8229Z" fill="white"/>
<path fill-rule="evenodd" clip-rule="evenodd" d="M57.8164 51.8724C57.7578 51.8724 57.7031 51.8832 57.6525 51.9047C57.6023 51.9257 57.5585 51.9543 57.5209 51.9905C57.4833 52.0262 57.4534 52.0687 57.4314 52.1181C57.4098 52.167 57.399 52.2186 57.399 52.2729C57.399 52.3286 57.4098 52.3807 57.4314 52.4291C57.4534 52.4775 57.4833 52.5198 57.5209 52.5559C57.5585 52.5916 57.6023 52.6202 57.6525 52.6418C57.7031 52.6628 57.7578 52.6733 57.8164 52.6733C57.8721 52.6733 57.925 52.6628 57.9751 52.6418C58.0258 52.6202 58.0694 52.5916 58.106 52.5559C58.1431 52.5198 58.1724 52.4775 58.194 52.4291C58.216 52.3807 58.2271 52.3286 58.2271 52.2729C58.2271 52.2186 58.216 52.167 58.194 52.1181C58.1724 52.0687 58.1431 52.0262 58.106 51.9905C58.0694 51.9543 58.0258 51.9257 57.9751 51.9047C57.925 51.8832 57.8721 51.8724 57.8164 51.8724ZM57.496 52.9131V54.968C57.496 55.0472 57.481 55.1228 57.4509 55.1946C57.4208 55.2665 57.3797 55.3298 57.3276 55.3846C57.2759 55.4398 57.2148 55.4838 57.1441 55.5166C57.0734 55.5498 56.9967 55.5665 56.9139 55.5665L56.5732 55.5621V56.1671H56.8869C56.9997 56.1671 57.1085 56.1527 57.2133 56.1238C57.3175 56.0955 57.4151 56.0551 57.5058 56.0028C57.5971 55.951 57.6803 55.8887 57.7555 55.8158C57.8307 55.7435 57.8954 55.6628 57.9495 55.5738C58.0037 55.4853 58.0453 55.3897 58.0744 55.287C58.104 55.1844 58.1195 55.078 58.121 54.968H58.1255V52.9131H57.496Z" fill="white"/>
<path fill-rule="evenodd" clip-rule="evenodd" d="M60.0658 51.8482L59.3957 52.4577L59.6506 52.7855L60.4358 52.3081L60.0658 51.8482V51.8482ZM58.5586 52.9131V54.2156C58.5586 54.3843 58.5867 54.5366 58.6428 54.6725C58.6995 54.8079 58.7769 54.9231 58.8752 55.0179C58.974 55.1123 59.0888 55.1851 59.2197 55.2365C59.3505 55.2878 59.4904 55.3135 59.6393 55.3135C59.707 55.3135 59.7734 55.3049 59.8386 55.2878C59.9043 55.2712 59.968 55.2487 60.0297 55.2203C60.0913 55.1915 60.1502 55.1577 60.2064 55.1191C60.2631 55.08 60.3162 55.0384 60.3658 54.9944L60.5689 55.2695H60.7178V52.9131H60.1019V54.2156C60.1019 54.2787 60.0898 54.34 60.0658 54.3997C60.0417 54.4588 60.0086 54.5119 59.9665 54.5588C59.9244 54.6057 59.875 54.6436 59.8183 54.6725C59.7622 54.7008 59.7025 54.715 59.6393 54.715C59.5747 54.715 59.514 54.704 59.4573 54.682C59.4012 54.66 59.352 54.6277 59.3099 54.5852C59.2678 54.5427 59.2342 54.4904 59.2091 54.4283C59.1846 54.3657 59.1723 54.2948 59.1723 54.2156V52.9131H58.5586Z" fill="white"/>
<path fill-rule="evenodd" clip-rule="evenodd" d="M62.27 52.8669C62.1331 52.8669 62.0018 52.8909 61.8759 52.9388C61.7506 52.9862 61.6383 53.0539 61.539 53.1419L61.3359 52.9131H61.187V55.2695H61.803V53.923C61.803 53.8614 61.815 53.8032 61.8391 53.7484C61.8631 53.6932 61.8962 53.645 61.9383 53.604C61.9804 53.5629 62.0301 53.5306 62.0872 53.5072C62.1444 53.4837 62.2053 53.4719 62.27 53.4719C62.3332 53.4719 62.3926 53.4837 62.4482 53.5072C62.5039 53.5306 62.5528 53.5629 62.5949 53.604C62.637 53.645 62.6701 53.6932 62.6942 53.7484C62.7182 53.8032 62.7303 53.8614 62.7303 53.923V55.2695H63.3462V53.923C63.3462 53.7778 63.3179 53.6411 63.2612 53.513C63.2051 53.3844 63.1281 53.2722 63.0303 53.1764C62.9326 53.0801 62.8183 53.0045 62.6874 52.9498C62.5565 52.8945 62.4174 52.8669 62.27 52.8669V52.8669Z" fill="white"/>
<path fill-rule="evenodd" clip-rule="evenodd" d="M64.0955 51.8724C64.0384 51.8724 63.9845 51.8832 63.9338 51.9047C63.8837 51.9257 63.8401 51.9543 63.8029 51.9905C63.7663 52.0262 63.737 52.0687 63.715 52.1181C63.6934 52.167 63.6826 52.2186 63.6826 52.2729C63.6826 52.3286 63.6934 52.3807 63.715 52.4291C63.737 52.4775 63.7663 52.5198 63.8029 52.5559C63.8401 52.5916 63.8837 52.6202 63.9338 52.6418C63.9845 52.6628 64.0384 52.6733 64.0955 52.6733C64.1527 52.6733 64.2063 52.6628 64.2565 52.6418C64.3071 52.6202 64.3512 52.5916 64.3888 52.5559C64.4264 52.5198 64.456 52.4775 64.4776 52.4291C64.4996 52.3807 64.5107 52.3286 64.5107 52.2729C64.5107 52.2186 64.4996 52.167 64.4776 52.1181C64.456 52.0687 64.4264 52.0262 64.3888 51.9905C64.3512 51.9543 64.3071 51.9257 64.2565 51.9047C64.2063 51.8832 64.1527 51.8724 64.0955 51.8724ZM63.7841 52.9131V55.2695H64.4046V52.9131H63.7841Z" fill="white"/>
<path fill-rule="evenodd" clip-rule="evenodd" d="M65.9749 53.4302C66.0591 53.4302 66.1383 53.4453 66.2125 53.4756C66.2872 53.5055 66.3524 53.5487 66.4081 53.6054C66.4637 53.6617 66.5076 53.7291 66.5397 53.8079C66.5723 53.8861 66.5886 53.9736 66.5886 54.0704C66.5886 54.1657 66.5723 54.253 66.5397 54.3322C66.5076 54.4114 66.4637 54.4789 66.4081 54.5346C66.3524 54.5904 66.2872 54.6336 66.2125 54.6644C66.1383 54.6952 66.0591 54.7106 65.9749 54.7106C65.8906 54.7106 65.8112 54.6943 65.7365 54.6615C65.6623 54.6283 65.5976 54.583 65.5424 54.5258C65.4878 54.4686 65.4447 54.4012 65.4131 54.3234C65.3815 54.2457 65.3657 54.1613 65.3657 54.0704C65.3657 53.9736 65.3815 53.8861 65.4131 53.8079C65.4447 53.7291 65.4878 53.6617 65.5424 53.6054C65.5976 53.5487 65.6623 53.5055 65.7365 53.4756C65.8112 53.4453 65.8906 53.4302 65.9749 53.4302V53.4302ZM65.9749 52.8229C65.8049 52.8229 65.645 52.8545 65.4951 52.9175C65.3456 52.9806 65.2148 53.0676 65.1025 53.1786C64.9907 53.2891 64.9024 53.4206 64.8377 53.5732C64.7731 53.7257 64.7407 53.8915 64.7407 54.0704C64.7407 54.2464 64.7731 54.4104 64.8377 54.5625C64.9024 54.7141 64.9907 54.8453 65.1025 54.9563C65.2148 55.0668 65.3456 55.1541 65.4951 55.2181C65.645 55.2817 65.8049 55.3135 65.9749 55.3135C66.1464 55.3135 66.3068 55.2817 66.4562 55.2181C66.6061 55.1541 66.7367 55.0668 66.848 54.9563C66.9593 54.8453 67.0473 54.7141 67.112 54.5625C67.1767 54.4104 67.209 54.2464 67.209 54.0704C67.209 53.8827 67.1767 53.7123 67.112 53.5592C67.0473 53.4057 66.9593 53.2745 66.848 53.1654C66.7367 53.0559 66.6061 52.9716 66.4562 52.9124C66.3068 52.8528 66.1464 52.8229 65.9749 52.8229V52.8229Z" fill="white"/>
<path fill-rule="evenodd" clip-rule="evenodd" d="M67.5493 52.9131V55.2695H68.1653V53.9714C68.1653 53.9083 68.1773 53.8489 68.2014 53.7932C68.2254 53.7374 68.2585 53.689 68.3006 53.648C68.3428 53.6069 68.3924 53.5746 68.4496 53.5512C68.5067 53.5277 68.5676 53.516 68.6323 53.516H69.1761V52.9175H68.6323C68.4969 52.9175 68.3661 52.9415 68.2397 52.9894C68.1134 53.0368 68.0006 53.1045 67.9013 53.1925L67.6982 52.9131H67.5493Z" fill="white"/>
<path fill-rule="evenodd" clip-rule="evenodd" d="M55.3896 36.9266C55.3896 32.5394 59.0359 28.9829 63.5338 28.9829C68.0318 28.9829 71.678 32.5394 71.678 36.9266C71.3859 32.7492 67.8266 29.5063 63.5338 29.5063C59.2411 29.5063 55.6818 32.7492 55.3896 36.9266Z" fill="white"/>
</g>
<defs>
<clipPath id="clip0_474_1225">
<rect width="67" height="49" fill="white" transform="translate(9 18)"/>
</clipPath>
</defs>
</svg>
