<svg width="100" height="100" viewBox="0 0 100 100" fill="none" xmlns="http://www.w3.org/2000/svg">
<rect width="100" height="100" rx="42" fill="black"/>
<g clip-path="url(#clip0_474_1225)">
<path fill-rule="evenodd" clip-rule="evenodd" d="M24.2693 46.4987C24.7686 46.4987 25.2378 46.5954 25.6769 46.7888C26.1196 46.9787 26.5056 47.2446 26.8349 47.5865C27.1678 47.9249 27.4316 48.3323 27.6264 48.8089C27.8247 49.2854 27.9239 49.8017 27.9239 50.3576C27.9239 50.9136 27.8247 51.4264 27.6264 51.896C27.4316 52.3656 27.1678 52.7731 26.8349 53.1184C26.502 53.4603 26.1143 53.7296 25.6716 53.9265C25.2325 54.1198 24.7651 54.2165 24.2693 54.2165C23.7735 54.2165 23.3043 54.1198 22.8616 53.9265C22.4225 53.7296 22.0365 53.4603 21.7036 53.1184C21.3708 52.7766 21.1087 52.3708 20.9175 51.9012C20.7263 51.4316 20.6306 50.917 20.6306 50.3576C20.6306 49.8638 20.7263 49.3838 20.9175 48.9176C21.1087 48.448 21.3725 48.0336 21.709 47.6745C22.0454 47.3154 22.4331 47.0305 22.8723 46.8198C23.3149 46.6058 23.7806 46.4987 24.2693 46.4987V46.4987ZM14.8726 34.9012V50.3576C14.8726 51.732 15.1169 52.9958 15.6056 54.1492C16.0978 55.2991 16.7707 56.2936 17.6241 57.1327C18.4811 57.9718 19.4797 58.6262 20.62 59.0958C21.7603 59.5655 22.9767 59.8003 24.2693 59.8003C25.5689 59.8003 26.7889 59.5724 27.9292 59.1166C29.073 58.6573 30.0699 58.0098 30.9198 57.1742C31.7697 56.3385 32.439 55.3423 32.9277 54.1854C33.4199 53.0252 33.666 51.7492 33.666 50.3576C33.666 48.9936 33.4199 47.7367 32.9277 46.5868C32.439 45.4334 31.7697 44.432 30.9198 43.5825C30.0734 42.733 29.0783 42.0717 27.9345 41.5987C26.7942 41.1221 25.5725 40.8839 24.2693 40.8839C23.8337 40.8839 23.3875 40.927 22.9307 41.0133C22.4774 41.0962 22.0347 41.2188 21.6027 41.3811C21.1707 41.5434 20.7617 41.7558 20.3757 42.0182C20.2837 42.0808 20.2087 42.1428 20.1507 42.2044L20.5988 34.9012H14.8726Z" fill="white"/>
<path fill-rule="evenodd" clip-rule="evenodd" d="M34.4897 41.521V51.3832C34.4897 52.6609 34.7058 53.8212 35.1378 54.864C35.5698 55.9034 36.1665 56.7892 36.9279 57.5212C37.6893 58.2499 38.5728 58.8127 39.5785 59.2098C40.5878 59.6035 41.6626 59.8003 42.8029 59.8003C43.1161 59.8003 43.4217 59.77 43.7198 59.7092C43.4752 59.869 43.2138 59.9961 42.9357 60.0904C42.6099 60.2044 42.2752 60.2613 41.9317 60.2613L38.8243 60.2199V65.8192L41.7299 65.8606C43.0295 65.8606 44.2459 65.6207 45.3791 65.1407C46.5123 64.6607 47.5057 64.008 48.3591 63.1827C49.2126 62.3574 49.8854 61.3905 50.3776 60.2821C50.8699 59.177 51.1213 57.9943 51.1319 56.7339V41.521H45.3898V51.3832C45.3898 51.7458 45.3189 52.0998 45.1773 52.4451C45.0392 52.787 44.848 53.0943 44.6036 53.3671C44.3628 53.6399 44.0866 53.8557 43.7749 54.0146C43.4633 54.17 43.1393 54.2476 42.8029 54.2476C42.4275 54.2476 42.0822 54.1907 41.767 54.0767C41.4554 53.9628 41.1845 53.7918 40.9543 53.5639C40.7277 53.336 40.5418 53.0425 40.3966 52.6834C40.2549 52.3242 40.1841 51.8909 40.1841 51.3832V41.521H34.4897Z" fill="white"/>
<path fill-rule="evenodd" clip-rule="evenodd" d="M75.869 46.4987C76.056 46.4987 76.2273 46.5073 76.3827 46.5244L72.4232 51.7545C72.3923 51.6362 72.3634 51.509 72.3366 51.3728C72.3047 51.1898 72.2817 51.0103 72.2675 50.8342C72.2534 50.6546 72.2463 50.4957 72.2463 50.3576C72.2463 49.7464 72.3419 49.2043 72.5331 48.7312C72.7243 48.2546 72.9811 47.8523 73.3033 47.5243C73.6291 47.1962 74.0116 46.9442 74.4507 46.768C74.8898 46.5885 75.3626 46.4987 75.869 46.4987V46.4987ZM54.0106 34.9012V41.552H51.8911V47.1047H54.0106V51.3832C54.0106 52.4986 54.2266 53.5483 54.6586 54.5325C55.0942 55.5132 55.6909 56.373 56.4487 57.112C57.2065 57.851 58.0883 58.4328 59.094 58.8576C60.1033 59.2789 61.1798 59.4895 62.3237 59.4895H66.3023V53.9368H62.3237C61.9625 53.9368 61.6207 53.8695 61.2985 53.7348C60.9762 53.5967 60.6965 53.4137 60.4592 53.1858C60.2255 52.9544 60.0413 52.685 59.9068 52.3777C59.7722 52.0704 59.7049 51.7389 59.7049 51.3832V47.1047H66.3023V41.552H59.7049V34.9012H54.0106ZM75.869 40.8839C74.58 40.8839 73.3653 41.1135 72.225 41.5728C71.0847 42.0286 70.0861 42.6709 69.2291 43.4996C68.3721 44.3284 67.6975 45.3281 67.2053 46.4987C66.7166 47.6693 66.4722 48.9556 66.4722 50.3576C66.4722 51.732 66.7166 52.9958 67.2053 54.1492C67.6975 55.2991 68.3704 56.2936 69.2238 57.1327C70.0808 57.9718 71.0794 58.6262 72.2197 59.0958C73.36 59.5655 74.5764 59.8003 75.869 59.8003C76.6339 59.8003 77.3793 59.714 78.1053 59.5413C78.8348 59.3686 79.5289 59.1148 80.1875 58.7799C80.8498 58.4449 81.4642 58.0375 82.0308 57.5575C82.5974 57.074 83.2065 56.3799 83.8581 55.4752L79.5714 51.2693C79.1606 52.174 78.8419 52.7541 78.6152 53.0096C78.3886 53.2652 78.1301 53.4827 77.8397 53.6623C77.5493 53.8384 77.2377 53.9748 76.9048 54.0715C76.5719 54.1682 76.2266 54.2165 75.869 54.2165C75.7696 54.2165 75.6726 54.2142 75.5779 54.2096L83.8634 45.1986C83.2295 44.3215 82.6257 43.6412 82.052 43.1578C81.4819 42.6709 80.8675 42.2599 80.2088 41.925C79.5501 41.59 78.8543 41.3328 78.1212 41.1532C77.3882 40.9736 76.6374 40.8839 75.869 40.8839V40.8839Z" fill="white"/>
<path fill-rule="evenodd" clip-rule="evenodd" d="M68.4893 38.8392C69.6769 41.3829 72.3991 43.0769 75.3565 43.1128C78.3139 43.1486 80.9068 41.519 81.8977 39.0017L80.8552 38.6145C80.0301 40.708 77.8559 42.0588 75.3647 42.0256C72.8734 41.9924 70.5668 40.5819 69.5396 38.4637L68.4893 38.8392Z" fill="white"/>
<path fill-rule="evenodd" clip-rule="evenodd" d="M65.9399 43.9602C65.9399 38.7374 70.2807 34.5034 75.6354 34.5034C80.9901 34.5034 85.3309 38.7374 85.3309 43.9602C83.0421 40.9836 79.4501 39.2318 75.6354 39.2318C71.8208 39.2318 68.2287 40.9836 65.9399 43.9602Z" fill="white"/>
<path fill-rule="evenodd" clip-rule="evenodd" d="M74.2617 36.1258L75.1776 36.1258L75.6356 35.3526L76.0935 36.1258L77.0094 36.1258L76.5515 36.899L77.0094 37.6722L76.0935 37.6722L75.6356 38.4454L75.1776 37.6722L74.2617 37.6722L74.7197 36.899L74.2617 36.1258Z" fill="white"/>
<path d="M65.9399 43.9602C65.2301 43.9602 64.8751 44.5376 64.5202 45.1149C64.1653 45.6922 63.8104 46.2696 63.1006 46.2696" stroke="white" stroke-width="2" stroke-miterlimit="10" stroke-linejoin="round"/>
<path d="M65.9397 43.9602C65.3116 43.9602 64.6836 45.3714 64.6836 46.7825" stroke="white" stroke-width="2" stroke-miterlimit="10" stroke-linejoin="round"/>
<path d="M85.3306 43.9602C86.1483 43.9602 86.9661 45.1149 86.9661 46.2696" stroke="white" stroke-width="2" stroke-miterlimit="10" stroke-linejoin="round"/>
<path d="M85.3306 43.9602C86.1104 43.9602 86.5003 44.4342 86.8902 44.9082C87.2801 45.3822 87.67 45.8562 88.4499 45.8562" stroke="white" stroke-width="2" stroke-miterlimit="10" stroke-linejoin="round"/>
<path fill-rule="evenodd" clip-rule="evenodd" d="M70.0708 37.9146C70.0708 37.391 70.5061 36.9666 71.043 36.9666C71.3008 36.9666 71.5481 37.0665 71.7304 37.2442C71.9127 37.422 72.0151 37.6631 72.0151 37.9146C72.0151 38.4381 71.5799 38.8625 71.043 38.8625C70.5061 38.8625 70.0708 38.4381 70.0708 37.9146V37.9146Z" fill="white"/>
<path d="M71.7303 37.2442L70.3555 38.5849M70.3555 37.2442L71.7303 38.5849L70.3555 37.2442Z" stroke="white" stroke-miterlimit="10" stroke-linejoin="round"/>
<path fill-rule="evenodd" clip-rule="evenodd" d="M70.0708 37.9146C70.0708 37.391 70.5061 36.9666 71.043 36.9666C71.3008 36.9666 71.5481 37.0665 71.7304 37.2442C71.9127 37.422 72.0151 37.6631 72.0151 37.9146C72.0151 38.4381 71.5799 38.8625 71.043 38.8625C70.5061 38.8625 70.0708 38.4381 70.0708 37.9146V37.9146Z" stroke="white" stroke-miterlimit="10" stroke-linejoin="round"/>
<path fill-rule="evenodd" clip-rule="evenodd" d="M79.2563 37.9146C79.2563 37.391 79.6916 36.9666 80.2285 36.9666C80.4863 36.9666 80.7336 37.0665 80.9159 37.2442C81.0983 37.422 81.2007 37.6631 81.2007 37.9146C81.2007 38.4381 80.7654 38.8625 80.2285 38.8625C79.6916 38.8625 79.2563 38.4381 79.2563 37.9146V37.9146Z" fill="white"/>
<path d="M80.9164 37.2442L79.5415 38.5849M79.5415 37.2442L80.9164 38.5849L79.5415 37.2442Z" stroke="white" stroke-miterlimit="10" stroke-linejoin="round"/>
<path fill-rule="evenodd" clip-rule="evenodd" d="M79.2563 37.9146C79.2563 37.391 79.6916 36.9666 80.2285 36.9666C80.4863 36.9666 80.7336 37.0665 80.9159 37.2442C81.0983 37.422 81.2007 37.6631 81.2007 37.9146C81.2007 38.4381 80.7654 38.8625 80.2285 38.8625C79.6916 38.8625 79.2563 38.4381 79.2563 37.9146V37.9146Z" stroke="white" stroke-miterlimit="10" stroke-linejoin="round"/>
<path fill-rule="evenodd" clip-rule="evenodd" d="M51.8507 62.997C51.7236 62.997 51.6045 63.0203 51.4935 63.0669C51.3825 63.1128 51.2858 63.176 51.2034 63.2563C51.121 63.3366 51.056 63.4309 51.0082 63.5392C50.9611 63.6474 50.9375 63.7636 50.9375 63.8875C50.9375 64.0115 50.9611 64.1276 51.0082 64.2359C51.056 64.3442 51.121 64.439 51.2034 64.5205C51.2858 64.6014 51.3825 64.6655 51.4935 64.7126C51.6045 64.7597 51.7236 64.7833 51.8507 64.7833H52.6136C52.6637 64.7833 52.7067 64.7912 52.7425 64.8069C52.7783 64.8226 52.7962 64.8558 52.7962 64.9064C52.7962 64.9553 52.7783 64.9972 52.7425 65.0321C52.7067 65.0671 52.6637 65.0845 52.6136 65.0845H50.9375V65.797H52.6136C52.7389 65.797 52.8571 65.774 52.9681 65.728C53.0791 65.6814 53.1758 65.6177 53.2582 65.5368C53.3406 65.4553 53.4059 65.361 53.4543 65.2539C53.5026 65.1462 53.5268 65.0304 53.5268 64.9064C53.5268 64.7842 53.5026 64.6716 53.4543 64.5685C53.4059 64.4655 53.3406 64.3773 53.2582 64.304C53.1758 64.2307 53.0791 64.1736 52.9681 64.1329C52.8571 64.0916 52.7389 64.0709 52.6136 64.0709H51.8507C51.8006 64.0709 51.7576 64.0531 51.7218 64.0176C51.686 63.9815 51.6681 63.9382 51.6681 63.8875C51.6681 63.8386 51.686 63.7967 51.7218 63.7618C51.7576 63.7269 51.8006 63.7094 51.8507 63.7094H53.3361V62.997H51.8507Z" fill="white"/>
<path fill-rule="evenodd" clip-rule="evenodd" d="M55.2324 63.6073C55.2682 63.6073 55.3026 63.6091 55.3354 63.6126C55.3688 63.6161 55.4025 63.6239 55.4366 63.6361L54.5824 64.7414C54.5681 64.717 54.5564 64.689 54.5475 64.6576C54.5385 64.6262 54.5308 64.5936 54.5242 64.5598C54.5182 64.5255 54.5138 64.4917 54.5108 64.4586C54.5084 64.4254 54.5072 64.3957 54.5072 64.3695C54.5072 64.2525 54.526 64.1475 54.5636 64.0543C54.6012 63.9606 54.6525 63.8806 54.7176 63.8142C54.7833 63.7479 54.8603 63.697 54.9486 63.6615C55.0375 63.6254 55.1321 63.6073 55.2324 63.6073V63.6073ZM55.2324 62.8844C55.0301 62.8844 54.8397 62.9202 54.6612 62.9918C54.4833 63.0634 54.3275 63.1638 54.1938 63.293C54.0607 63.4222 53.9557 63.5785 53.8787 63.7619C53.8017 63.9452 53.7632 64.1478 53.7632 64.3695C53.7632 64.586 53.8017 64.7848 53.8787 64.9658C53.9557 65.1462 54.0607 65.3019 54.1938 65.4329C54.3275 65.5639 54.4833 65.666 54.6612 65.7393C54.8397 65.8127 55.0301 65.8493 55.2324 65.8493C55.3524 65.8493 55.4691 65.8357 55.5825 65.8083C55.6965 65.7815 55.8048 65.742 55.9075 65.6896C56.0108 65.6372 56.1066 65.5735 56.1949 65.4984C56.2838 65.4233 56.3623 65.3386 56.4304 65.2443L55.8932 64.7179C55.8645 64.7807 55.8272 64.838 55.7813 64.8899C55.7359 64.9411 55.684 64.9847 55.6255 65.0208C55.5676 65.0563 55.5055 65.0837 55.4392 65.1029C55.373 65.1221 55.304 65.1317 55.2324 65.1317C55.2038 65.1317 55.1751 65.1305 55.1465 65.1282C55.1178 65.1253 55.0892 65.1195 55.0605 65.1107L56.4357 63.4947C56.3677 63.4004 56.2889 63.3154 56.1994 63.2398C56.1098 63.1635 56.0134 63.0992 55.9102 63.0468C55.8075 62.9944 55.6989 62.9543 55.5843 62.9263C55.4697 62.8984 55.3524 62.8844 55.2324 62.8844V62.8844Z" fill="white"/>
<path fill-rule="evenodd" clip-rule="evenodd" d="M56.8037 62.9918V65.797H57.537V64.2516C57.537 64.1765 57.5513 64.1058 57.58 64.0395C57.6086 63.9731 57.648 63.9155 57.6981 63.8666C57.7483 63.8177 57.8074 63.7793 57.8754 63.7514C57.9435 63.7234 58.016 63.7095 58.093 63.7095H58.7403V62.997H58.093C57.9318 62.997 57.776 63.0256 57.6256 63.0826C57.4752 63.139 57.3409 63.2197 57.2227 63.3244L56.981 62.9918H56.8037Z" fill="white"/>
<path fill-rule="evenodd" clip-rule="evenodd" d="M59.452 61.7529C59.3839 61.7529 59.3198 61.7657 59.2595 61.7913C59.1998 61.8163 59.1479 61.8504 59.1037 61.8935C59.0601 61.936 59.0252 61.9866 58.9989 62.0454C58.9733 62.1036 58.9604 62.165 58.9604 62.2296C58.9604 62.2959 58.9733 62.3579 58.9989 62.4156C59.0252 62.4732 59.0601 62.5235 59.1037 62.5666C59.1479 62.6091 59.1998 62.6431 59.2595 62.6688C59.3198 62.6938 59.3839 62.7063 59.452 62.7063C59.52 62.7063 59.5839 62.6938 59.6436 62.6688C59.7039 62.6431 59.7564 62.6091 59.8012 62.5666C59.8459 62.5235 59.8811 62.4732 59.9068 62.4156C59.9331 62.3579 59.9462 62.2959 59.9462 62.2296C59.9462 62.165 59.9331 62.1036 59.9068 62.0454C59.8811 61.9866 59.8459 61.936 59.8012 61.8935C59.7564 61.8504 59.7039 61.8163 59.6436 61.7913C59.5839 61.7657 59.52 61.7529 59.452 61.7529ZM59.0813 62.9918V65.797H59.82V62.9918H59.0813Z" fill="white"/>
<path fill-rule="evenodd" clip-rule="evenodd" d="M61.6895 63.6073C61.7897 63.6073 61.884 63.6288 61.9724 63.6719C62.0613 63.7144 62.1389 63.7712 62.2052 63.8422C62.2714 63.9126 62.3236 63.9938 62.3618 64.0857C62.4006 64.1771 62.42 64.2717 62.42 64.3695C62.42 64.4673 62.4006 64.5622 62.3618 64.6541C62.3236 64.7455 62.2714 64.8267 62.2052 64.8977C62.1389 64.9681 62.0613 65.0249 61.9724 65.068C61.884 65.1104 61.7897 65.1317 61.6895 65.1317C61.5892 65.1317 61.4946 65.1116 61.4056 65.0714C61.3173 65.0313 61.2403 64.9763 61.1746 64.9064C61.1096 64.8366 61.0582 64.7554 61.0206 64.6628C60.983 64.5703 60.9642 64.4725 60.9642 64.3695C60.9642 64.2508 60.983 64.1442 61.0206 64.05C61.0582 63.9557 61.1096 63.8759 61.1746 63.8107C61.2403 63.745 61.3173 63.6946 61.4056 63.6597C61.4946 63.6248 61.5892 63.6073 61.6895 63.6073V63.6073ZM62.42 61.876V63.1856C62.3806 63.1297 62.3323 63.0826 62.275 63.0442C62.2177 63.0058 62.1562 62.9749 62.0906 62.9516C62.0255 62.9278 61.9583 62.9106 61.8891 62.9001C61.8205 62.8896 61.7539 62.8844 61.6895 62.8844C61.4871 62.8844 61.2967 62.9219 61.1182 62.997C60.9404 63.0721 60.7846 63.176 60.6509 63.3087C60.5178 63.4414 60.4127 63.5986 60.3357 63.7802C60.2587 63.9618 60.2202 64.1582 60.2202 64.3695C60.2202 64.5825 60.2587 64.7795 60.3357 64.9606C60.4127 65.141 60.5178 65.2973 60.6509 65.4294C60.7846 65.5609 60.9404 65.664 61.1182 65.7385C61.2967 65.8124 61.4871 65.8493 61.6895 65.8493C61.7826 65.8493 61.8742 65.838 61.9643 65.8153C62.055 65.7926 62.1434 65.7618 62.2293 65.7228C62.3153 65.6832 62.3971 65.6369 62.4747 65.5839C62.5528 65.5304 62.6269 65.4731 62.6967 65.4119L62.9814 65.797H63.1587V61.876H62.42Z" fill="white"/>
<path fill-rule="evenodd" clip-rule="evenodd" d="M65.5118 61.5591L64.7141 62.2846L65.0176 62.6749L65.9523 62.1065L65.5118 61.5591V61.5591ZM65.0283 63.6073C65.1286 63.6073 65.2229 63.6254 65.3112 63.6614C65.4002 63.6969 65.4778 63.7485 65.544 63.816C65.6103 63.8829 65.6625 63.9632 65.7007 64.0569C65.7395 64.1501 65.7589 64.2543 65.7589 64.3695C65.7589 64.483 65.7395 64.5869 65.7007 64.6812C65.6625 64.7755 65.6103 64.8558 65.544 64.9222C65.4778 64.9885 65.4002 65.04 65.3112 65.0767C65.2229 65.1134 65.1286 65.1317 65.0283 65.1317C64.928 65.1317 64.8334 65.1122 64.7445 65.0732C64.6562 65.0336 64.5792 64.9798 64.5135 64.9117C64.4484 64.8436 64.3971 64.7633 64.3595 64.6707C64.3219 64.5782 64.3031 64.4778 64.3031 64.3695C64.3031 64.2543 64.3219 64.1501 64.3595 64.0569C64.3971 63.9632 64.4484 63.8829 64.5135 63.816C64.5792 63.7485 64.6562 63.6969 64.7445 63.6614C64.8334 63.6254 64.928 63.6073 65.0283 63.6073V63.6073ZM65.0283 62.8844C64.826 62.8844 64.6356 62.9219 64.4571 62.997C64.2792 63.0721 64.1234 63.1757 63.9897 63.3078C63.8566 63.4394 63.7516 63.596 63.6746 63.7776C63.5976 63.9592 63.5591 64.1565 63.5591 64.3695C63.5591 64.579 63.5976 64.7743 63.6746 64.9553C63.7516 65.1358 63.8566 65.292 63.9897 65.4242C64.1234 65.5557 64.2792 65.6596 64.4571 65.7359C64.6356 65.8115 64.826 65.8494 65.0283 65.8494C65.2324 65.8494 65.4235 65.8115 65.6013 65.7359C65.7798 65.6596 65.9353 65.5557 66.0678 65.4242C66.2003 65.292 66.3051 65.1358 66.3821 64.9553C66.4591 64.7743 66.4975 64.579 66.4975 64.3695C66.4975 64.146 66.4591 63.9431 66.3821 63.761C66.3051 63.5782 66.2003 63.4219 66.0678 63.2921C65.9353 63.1618 65.7798 63.0613 65.6013 62.9909C65.4235 62.9199 65.2324 62.8844 65.0283 62.8844V62.8844Z" fill="white"/>
<path fill-rule="evenodd" clip-rule="evenodd" d="M68.8291 61.7529C68.7593 61.7529 68.6942 61.7657 68.6339 61.7913C68.5742 61.8163 68.522 61.8504 68.4772 61.8935C68.4325 61.936 68.397 61.9866 68.3707 62.0454C68.345 62.1036 68.3322 62.165 68.3322 62.2296C68.3322 62.2959 68.345 62.3579 68.3707 62.4156C68.397 62.4732 68.4325 62.5235 68.4772 62.5666C68.522 62.6091 68.5742 62.6431 68.6339 62.6688C68.6942 62.6938 68.7593 62.7063 68.8291 62.7063C68.8954 62.7063 68.9583 62.6938 69.018 62.6688C69.0783 62.6431 69.1302 62.6091 69.1738 62.5666C69.218 62.5235 69.2529 62.4732 69.2785 62.4156C69.3048 62.3579 69.3179 62.2959 69.3179 62.2296C69.3179 62.165 69.3048 62.1036 69.2785 62.0454C69.2529 61.9866 69.218 61.936 69.1738 61.8935C69.1302 61.8504 69.0783 61.8163 69.018 61.7913C68.9583 61.7657 68.8954 61.7529 68.8291 61.7529ZM68.4477 62.9918V65.4381C68.4477 65.5324 68.4298 65.6223 68.394 65.7079C68.3582 65.7935 68.3092 65.8688 68.2471 65.934C68.1857 65.9998 68.1128 66.0522 68.0287 66.0912C67.9445 66.1308 67.8532 66.1506 67.7547 66.1506L67.3491 66.1453V66.8656H67.7225C67.8568 66.8656 67.9863 66.8484 68.111 66.8141C68.2352 66.7803 68.3513 66.7323 68.4593 66.67C68.568 66.6083 68.667 66.5341 68.7566 66.4474C68.8461 66.3613 68.9231 66.2652 68.9876 66.1593C69.052 66.0539 69.1016 65.9401 69.1362 65.8179C69.1714 65.6957 69.1899 65.5691 69.1917 65.4381H69.1971V62.9918H68.4477Z" fill="white"/>
<path fill-rule="evenodd" clip-rule="evenodd" d="M71.5066 61.7241L70.7089 62.4496L71.0124 62.8399L71.9471 62.2715L71.5066 61.7241V61.7241ZM69.7124 62.9918V64.5424C69.7124 64.7432 69.7458 64.9245 69.8127 65.0863C69.8801 65.2475 69.9723 65.3846 70.0893 65.4975C70.2069 65.6098 70.3436 65.6966 70.4994 65.7577C70.6552 65.8188 70.8217 65.8493 70.999 65.8493C71.0796 65.8493 71.1587 65.8392 71.2363 65.8188C71.3144 65.799 71.3903 65.7722 71.4637 65.7385C71.5371 65.7041 71.6072 65.664 71.6741 65.618C71.7415 65.5714 71.8048 65.522 71.8639 65.4696L72.1056 65.797H72.2829V62.9918H71.5496V64.5424C71.5496 64.6174 71.5353 64.6905 71.5066 64.7615C71.478 64.8319 71.4386 64.8951 71.3885 64.951C71.3383 65.0068 71.2795 65.0519 71.2121 65.0863C71.1452 65.12 71.0742 65.1369 70.999 65.1369C70.922 65.1369 70.8498 65.1238 70.7823 65.0976C70.7155 65.0714 70.657 65.033 70.6068 64.9824C70.5567 64.9318 70.5167 64.8695 70.4869 64.7956C70.4576 64.7211 70.443 64.6367 70.443 64.5424V62.9918H69.7124Z" fill="white"/>
<path fill-rule="evenodd" clip-rule="evenodd" d="M74.1311 62.9368C73.9681 62.9368 73.8117 62.9653 73.6619 63.0223C73.5127 63.0788 73.379 63.1594 73.2608 63.2642L73.0191 62.9918H72.8418V65.7969H73.5751V64.194C73.5751 64.1206 73.5894 64.0514 73.618 63.9862C73.6467 63.9204 73.6861 63.8631 73.7362 63.8142C73.7864 63.7653 73.8455 63.7269 73.9135 63.699C73.9815 63.671 74.0541 63.657 74.1311 63.657C74.2063 63.657 74.277 63.671 74.3433 63.699C74.4095 63.7269 74.4677 63.7653 74.5178 63.8142C74.568 63.8631 74.6074 63.9204 74.636 63.9862C74.6647 64.0514 74.679 64.1206 74.679 64.194V65.7969H75.4123V64.194C75.4123 64.0211 75.3786 63.8584 75.3111 63.7059C75.2443 63.5529 75.1526 63.4193 75.0362 63.3052C74.9199 63.1905 74.7838 63.1006 74.628 63.0354C74.4722 62.9697 74.3065 62.9368 74.1311 62.9368V62.9368Z" fill="white"/>
<path fill-rule="evenodd" clip-rule="evenodd" d="M76.304 61.7529C76.236 61.7529 76.1718 61.7657 76.1115 61.7913C76.0519 61.8163 75.9999 61.8504 75.9558 61.8935C75.9122 61.936 75.8773 61.9866 75.851 62.0454C75.8253 62.1036 75.8125 62.165 75.8125 62.2296C75.8125 62.2959 75.8253 62.3579 75.851 62.4156C75.8773 62.4732 75.9122 62.5235 75.9558 62.5666C75.9999 62.6091 76.0519 62.6431 76.1115 62.6688C76.1718 62.6938 76.236 62.7063 76.304 62.7063C76.3721 62.7063 76.4359 62.6938 76.4956 62.6688C76.5559 62.6431 76.6085 62.6091 76.6532 62.5666C76.698 62.5235 76.7332 62.4732 76.7589 62.4156C76.7851 62.3579 76.7983 62.2959 76.7983 62.2296C76.7983 62.165 76.7851 62.1036 76.7589 62.0454C76.7332 61.9866 76.698 61.936 76.6532 61.8935C76.6085 61.8504 76.5559 61.8163 76.4956 61.7913C76.4359 61.7657 76.3721 61.7529 76.304 61.7529ZM75.9334 62.9918V65.797H76.672V62.9918H75.9334Z" fill="white"/>
<path fill-rule="evenodd" clip-rule="evenodd" d="M78.5415 63.6073C78.6418 63.6073 78.7361 63.6254 78.8244 63.6615C78.9134 63.697 78.991 63.7485 79.0572 63.816C79.1235 63.8829 79.1757 63.9632 79.2139 64.057C79.2527 64.1501 79.2721 64.2543 79.2721 64.3695C79.2721 64.483 79.2527 64.5869 79.2139 64.6812C79.1757 64.7755 79.1235 64.8558 79.0572 64.9222C78.991 64.9885 78.9134 65.04 78.8244 65.0767C78.7361 65.1134 78.6418 65.1317 78.5415 65.1317C78.4412 65.1317 78.3466 65.1122 78.2577 65.0732C78.1693 65.0336 78.0923 64.9798 78.0267 64.9117C77.9616 64.8436 77.9103 64.7633 77.8727 64.6707C77.8351 64.5782 77.8163 64.4778 77.8163 64.3695C77.8163 64.2543 77.8351 64.1501 77.8727 64.057C77.9103 63.9632 77.9616 63.8829 78.0267 63.816C78.0923 63.7485 78.1693 63.697 78.2577 63.6615C78.3466 63.6254 78.4412 63.6073 78.5415 63.6073V63.6073ZM78.5415 62.8844C78.3392 62.8844 78.1487 62.922 77.9703 62.9971C77.7924 63.0721 77.6366 63.1757 77.5029 63.3079C77.3698 63.4394 77.2648 63.596 77.1878 63.7776C77.1108 63.9592 77.0723 64.1565 77.0723 64.3695C77.0723 64.579 77.1108 64.7743 77.1878 64.9553C77.2648 65.1358 77.3698 65.292 77.5029 65.4242C77.6366 65.5557 77.7924 65.6596 77.9703 65.7359C78.1487 65.8115 78.3392 65.8493 78.5415 65.8493C78.7456 65.8493 78.9366 65.8115 79.1145 65.7359C79.293 65.6596 79.4485 65.5557 79.581 65.4242C79.7135 65.292 79.8182 65.1358 79.8952 64.9553C79.9722 64.7743 80.0107 64.579 80.0107 64.3695C80.0107 64.146 79.9722 63.9432 79.8952 63.761C79.8182 63.5782 79.7135 63.4219 79.581 63.2922C79.4485 63.1618 79.293 63.0614 79.1145 62.9909C78.9366 62.9199 78.7456 62.8844 78.5415 62.8844V62.8844Z" fill="white"/>
<path fill-rule="evenodd" clip-rule="evenodd" d="M80.416 62.9918V65.797H81.1493V64.2516C81.1493 64.1765 81.1636 64.1058 81.1923 64.0395C81.2209 63.9731 81.2603 63.9155 81.3105 63.8666C81.3606 63.8177 81.4197 63.7793 81.4877 63.7514C81.5558 63.7234 81.6283 63.7095 81.7053 63.7095H82.3526V62.997H81.7053C81.5441 62.997 81.3883 63.0256 81.2379 63.0826C81.0875 63.139 80.9532 63.2197 80.835 63.3244L80.5933 62.9918H80.416Z" fill="white"/>
<path fill-rule="evenodd" clip-rule="evenodd" d="M65.9399 43.9602C65.9399 38.7374 70.2807 34.5034 75.6354 34.5034C80.9901 34.5034 85.3309 38.7374 85.3309 43.9602C84.9831 38.9872 80.7458 35.1265 75.6354 35.1265C70.525 35.1265 66.2877 38.9872 65.9399 43.9602Z" fill="white"/>
</g>
<defs>
<clipPath id="clip0_474_1225">
<rect width="79.7619" height="58.3333" fill="white" transform="translate(10.7144 21.4286)"/>
</clipPath>
</defs>
</svg>
