<svg width="39" height="30" viewBox="0 0 39 30" fill="none" xmlns="http://www.w3.org/2000/svg">
<path d="M34.7 7.5L19.7 16.875L4.70001 7.5V3.75L19.7 13.125L34.7 3.75M34.7 0H4.70001C2.61876 0 0.950012 1.66875 0.950012 3.75V26.25C0.950012 27.2446 1.3451 28.1984 2.04836 28.9016C2.75162 29.6049 3.70545 30 4.70001 30H34.7C35.6946 30 36.6484 29.6049 37.3517 28.9016C38.0549 28.1984 38.45 27.2446 38.45 26.25V3.75C38.45 2.75544 38.0549 1.80161 37.3517 1.09835C36.6484 0.395088 35.6946 0 34.7 0Z" fill="#C4C4C4"/>
</svg>
