<svg width="44" height="44" viewBox="0 0 44 44" fill="none" xmlns="http://www.w3.org/2000/svg">
<path d="M27.7031 24.1937C27.9469 24.1937 28.8609 24.6062 30.4453 25.4312C32.0297 26.2562 32.8687 26.7531 32.9625 26.9218C33 27.0156 33.0187 27.1562 33.0187 27.3437C33.0187 27.9625 32.8594 28.6749 32.5406 29.4812C32.2406 30.2125 31.575 30.8265 30.5437 31.3234C29.5125 31.8203 28.5562 32.0687 27.675 32.0687C26.6062 32.0687 24.825 31.4874 22.3312 30.325C20.4937 29.4812 18.9 28.375 17.55 27.0062C16.2 25.6375 14.8125 23.9031 13.3875 21.8031C12.0375 19.7968 11.3719 17.9781 11.3906 16.3468V16.1218C11.4469 14.4156 12.1406 12.9343 13.4719 11.6781C13.9219 11.2656 14.4094 11.0593 14.9344 11.0593C15.0469 11.0593 15.2156 11.0734 15.4406 11.1015C15.6656 11.1296 15.8437 11.1437 15.975 11.1437C16.3312 11.1437 16.5797 11.2046 16.7203 11.3265C16.8609 11.4484 17.0062 11.7062 17.1562 12.1C17.3062 12.475 17.6156 13.3 18.0844 14.575C18.5531 15.85 18.7875 16.5531 18.7875 16.6843C18.7875 17.0781 18.4641 17.6171 17.8172 18.3015C17.1703 18.9859 16.8469 19.4218 16.8469 19.6093C16.8469 19.7406 16.8937 19.8812 16.9875 20.0312C17.625 21.4 18.5812 22.6843 19.8562 23.8843C20.9062 24.8781 22.3219 25.825 24.1031 26.725C24.3281 26.8562 24.5344 26.9218 24.7219 26.9218C25.0031 26.9218 25.5094 26.4671 26.2406 25.5578C26.9719 24.6484 27.4594 24.1937 27.7031 24.1937ZM21.9937 39.0999C24.375 39.0999 26.6578 38.6312 28.8422 37.6937C31.0266 36.7562 32.9062 35.5 34.4812 33.9249C36.0562 32.3499 37.3125 30.4703 38.25 28.2859C39.1875 26.1015 39.6562 23.8187 39.6562 21.4375C39.6562 19.0562 39.1875 16.7734 38.25 14.589C37.3125 12.4046 36.0562 10.525 34.4812 8.94995C32.9062 7.37495 31.0266 6.1187 28.8422 5.1812C26.6578 4.2437 24.375 3.77495 21.9937 3.77495C19.6125 3.77495 17.3297 4.2437 15.1453 5.1812C12.9609 6.1187 11.0812 7.37495 9.50625 8.94995C7.93125 10.525 6.675 12.4046 5.7375 14.589C4.8 16.7734 4.33125 19.0562 4.33125 21.4375C4.33125 25.2437 5.45625 28.6937 7.70625 31.7875L5.48437 38.3406L12.2906 36.1749C15.2531 38.125 18.4875 39.0999 21.9937 39.0999ZM21.9937 0.231201C24.8625 0.231201 27.6047 0.793701 30.2203 1.9187C32.8359 3.0437 35.0906 4.55308 36.9844 6.44683C38.8781 8.34058 40.3875 10.5953 41.5125 13.2109C42.6375 15.8265 43.2 18.5687 43.2 21.4375C43.2 24.3062 42.6375 27.0484 41.5125 29.664C40.3875 32.2796 38.8781 34.5343 36.9844 36.4281C35.0906 38.3218 32.8359 39.8312 30.2203 40.9562C27.6047 42.0812 24.8625 42.6437 21.9937 42.6437C18.3375 42.6437 14.9156 41.7625 11.7281 40L0 43.7687L3.825 32.3781C1.8 29.0406 0.7875 25.3937 0.7875 21.4375C0.7875 18.5687 1.35 15.8265 2.475 13.2109C3.6 10.5953 5.10937 8.34058 7.00312 6.44683C8.89687 4.55308 11.1516 3.0437 13.7672 1.9187C16.3828 0.793701 19.125 0.231201 21.9937 0.231201Z" fill="#C4C4C4"/>
</svg>
