<svg width="45" height="45" viewBox="0 0 45 45" fill="none" xmlns="http://www.w3.org/2000/svg">
<path fill-rule="evenodd" clip-rule="evenodd" d="M22.5 0.5C10.0687 0.5 0 10.5687 0 23C0 32.9562 6.44062 41.3656 15.3844 44.3469C16.5094 44.5438 16.9312 43.8688 16.9312 43.2781C16.9312 42.7438 16.9031 40.9719 16.9031 39.0875C11.25 40.1281 9.7875 37.7094 9.3375 36.4437C9.08438 35.7969 7.9875 33.8 7.03125 33.2656C6.24375 32.8438 5.11875 31.8031 7.00312 31.775C8.775 31.7469 10.0406 33.4062 10.4625 34.0812C12.4875 37.4844 15.7219 36.5281 17.0156 35.9375C17.2125 34.475 17.8031 33.4906 18.45 32.9281C13.4438 32.3656 8.2125 30.425 8.2125 21.8188C8.2125 19.3719 9.08438 17.3469 10.5188 15.7719C10.2937 15.2094 9.50625 12.9031 10.7437 9.80938C10.7437 9.80938 12.6281 9.21875 16.9312 12.1156C18.7312 11.6094 20.6437 11.3562 22.5562 11.3562C24.4688 11.3562 26.3813 11.6094 28.1812 12.1156C32.4844 9.19063 34.3688 9.80938 34.3688 9.80938C35.6063 12.9031 34.8188 15.2094 34.5938 15.7719C36.0281 17.3469 36.9 19.3438 36.9 21.8188C36.9 30.4531 31.6406 32.3656 26.6344 32.9281C27.45 33.6312 28.1531 34.9812 28.1531 37.0906C28.1531 40.1 28.125 42.5187 28.125 43.2781C28.125 43.8688 28.5469 44.5719 29.6719 44.3469C34.1385 42.8389 38.0197 39.9682 40.7694 36.1388C43.519 32.3095 44.9987 27.7143 45 23C45 10.5687 34.9313 0.5 22.5 0.5Z" fill="#C4C4C4"/>
</svg>
