<svg width="39" height="38" viewBox="0 0 39 38" fill="none" xmlns="http://www.w3.org/2000/svg">
<path fill-rule="evenodd" clip-rule="evenodd" d="M14.6794 13.3169H21.6431V16.7856C22.6462 14.7906 25.2187 12.9981 29.0831 12.9981C36.4912 12.9981 38.25 16.9694 38.25 24.2556V37.75H30.75V25.915C30.75 21.7656 29.7469 19.4256 27.1931 19.4256C23.6512 19.4256 22.1794 21.9475 22.1794 25.9131V37.75H14.6794V13.3169ZM1.81875 37.4312H9.31875V12.9981H1.81875V37.4312ZM10.3931 5.03125C10.3934 5.65989 10.2687 6.28232 10.0264 6.86235C9.78397 7.44239 9.42872 7.96846 8.98125 8.41C8.0745 9.31117 6.84714 9.8156 5.56875 9.8125C4.29261 9.81164 3.06808 9.3085 2.16 8.41187C1.71415 7.96883 1.3601 7.44217 1.11814 6.86206C0.87619 6.28195 0.751086 5.6598 0.75 5.03125C0.75 3.76188 1.25625 2.54688 2.16187 1.65063C3.06916 0.752797 4.2942 0.249439 5.57062 0.25C6.84937 0.25 8.07562 0.754375 8.98125 1.65063C9.885 2.54688 10.3931 3.76188 10.3931 5.03125Z" fill="#C4C4C4"/>
</svg>
