<svg width="60" height="60" viewBox="0 0 60 60" fill="none" xmlns="http://www.w3.org/2000/svg">
<path d="M52.25 0.333374H7.75004C5.78302 0.333374 3.89656 1.11477 2.50567 2.50567C1.11477 3.89656 0.333374 5.78302 0.333374 7.75004V52.25C0.333374 54.2171 1.11477 56.1035 2.50567 57.4944C3.89656 58.8853 5.78302 59.6667 7.75004 59.6667H52.25C54.2171 59.6667 56.1035 58.8853 57.4944 57.4944C58.8853 56.1035 59.6667 54.2171 59.6667 52.25V7.75004C59.6667 5.78302 58.8853 3.89656 57.4944 2.50567C56.1035 1.11477 54.2171 0.333374 52.25 0.333374ZM33.7084 52.25H7.75004V26.2917H33.7084V52.25ZM52.25 52.25H41.125V26.2917H52.25V52.25ZM52.25 18.875H7.75004V7.75004H52.25V18.875Z" fill="#1EBB66"/>
</svg>
