<svg width="60" height="60" viewBox="0 0 60 60" fill="none" xmlns="http://www.w3.org/2000/svg">
<path d="M22.5 40H38.75C40.4076 40 41.9973 39.3415 43.1694 38.1694C44.3415 36.9973 45 35.4076 45 33.75C45 32.0924 44.3415 30.5027 43.1694 29.3306C41.9973 28.1585 40.4076 27.5 38.75 27.5H38.625C38.025 23.275 34.4 20 30 20C26.5 20 23.5 22.075 22.1 25.05H21.7C19.8599 25.2441 18.1569 26.1128 16.9196 27.4886C15.6823 28.8644 14.9984 30.6497 15 32.5C15 36.65 18.35 40 22.5 40ZM52.5 7.5H7.5C4.75 7.5 2.5 9.75 2.5 12.5V47.5C2.5 50.25 4.75 52.5 7.5 52.5H52.5C55.25 52.5 57.5 50.25 57.5 47.5V12.5C57.5 9.75 55.25 7.5 52.5 7.5ZM52.5 47.525H7.5V12.475H52.5V47.525Z" fill="#1EBB66"/>
</svg>
