<svg width="54" height="54" viewBox="0 0 54 54" fill="none" xmlns="http://www.w3.org/2000/svg">
<path d="M27 15.9583C29.4853 15.9583 31.5 13.9809 31.5 11.5417C31.5 9.10241 29.4853 7.125 27 7.125C24.5147 7.125 22.5 9.10241 22.5 11.5417C22.5 13.9809 24.5147 15.9583 27 15.9583Z" stroke="#005EFF" stroke-width="3.75" stroke-linecap="round" stroke-linejoin="round"/>
<path d="M11.25 46.875C13.7353 46.875 15.75 44.8976 15.75 42.4583C15.75 40.019 13.7353 38.0416 11.25 38.0416C8.76472 38.0416 6.75 40.019 6.75 42.4583C6.75 44.8976 8.76472 46.875 11.25 46.875Z" stroke="#005EFF" stroke-width="3.75" stroke-linecap="round" stroke-linejoin="round"/>
<path d="M42.75 46.875C45.2353 46.875 47.25 44.8976 47.25 42.4583C47.25 40.019 45.2353 38.0416 42.75 38.0416C40.2647 38.0416 38.25 40.019 38.25 42.4583C38.25 44.8976 40.2647 46.875 42.75 46.875Z" stroke="#005EFF" stroke-width="3.75" stroke-linecap="round" stroke-linejoin="round"/>
<path d="M27 38.0416C30.7279 38.0416 33.75 35.0755 33.75 31.4166C33.75 27.7577 30.7279 24.7916 27 24.7916C23.2721 24.7916 20.25 27.7577 20.25 31.4166C20.25 35.0755 23.2721 38.0416 27 38.0416Z" stroke="#005EFF" stroke-width="3.75" stroke-linecap="round" stroke-linejoin="round"/>
<path d="M27 15.9584V24.7917M15.075 39.8084L21.375 35.3917M38.925 39.8084L32.625 35.3917" stroke="#005EFF" stroke-width="3.75" stroke-linecap="round" stroke-linejoin="round"/>
</svg>
