<svg width="31" height="31" viewBox="0 0 31 31" fill="none" xmlns="http://www.w3.org/2000/svg">
<path d="M16.531 22.3644L22.3644 16.531C22.6363 16.2568 22.7889 15.8862 22.7889 15.5C22.7889 15.1138 22.6363 14.7432 22.3644 14.469L16.531 8.63562C16.256 8.36998 15.8876 8.22298 15.5052 8.22631C15.1229 8.22963 14.7571 8.383 14.4867 8.65339C14.2163 8.92378 14.0629 9.28954 14.0596 9.67191C14.0563 10.0543 14.2033 10.4227 14.4689 10.6977L17.8129 14.0417H9.66665C9.27987 14.0417 8.90894 14.1953 8.63545 14.4688C8.36196 14.7423 8.20831 15.1132 8.20831 15.5C8.20831 15.8868 8.36196 16.2577 8.63545 16.5312C8.90894 16.8047 9.27987 16.9583 9.66665 16.9583H17.8129L14.4689 20.3023C14.2033 20.5773 14.0563 20.9457 14.0596 21.3281C14.0629 21.7105 14.2163 22.0762 14.4867 22.3466C14.7571 22.617 15.1229 22.7704 15.5052 22.7737C15.8876 22.777 16.256 22.63 16.531 22.3644Z" fill="#005EFF"/>
<path d="M30.0834 15.5C30.0834 12.6157 29.2281 9.79615 27.6256 7.39793C26.0232 4.99972 23.7456 3.13053 21.0808 2.02676C18.4161 0.922979 15.4838 0.63418 12.655 1.19688C9.82607 1.75958 7.22757 3.14851 5.18805 5.18803C3.14854 7.22754 1.75961 9.82604 1.19691 12.6549C0.634207 15.4838 0.923006 18.416 2.02678 21.0808C3.13056 23.7456 4.99974 26.0232 7.39796 27.6256C9.79618 29.228 12.6157 30.0833 15.5 30.0833C19.3665 30.0791 23.0733 28.5413 25.8073 25.8073C28.5413 23.0733 30.0791 19.3664 30.0834 15.5V15.5ZM14.469 22.3644C14.1956 22.0909 14.042 21.72 14.042 21.3333C14.042 20.9466 14.1956 20.5758 14.469 20.3023L17.8129 16.9583H9.66669C9.27992 16.9583 8.90899 16.8047 8.6355 16.5312C8.36201 16.2577 8.20836 15.8868 8.20836 15.5C8.20836 15.1132 8.36201 14.7423 8.6355 14.4688C8.90899 14.1953 9.27992 14.0417 9.66669 14.0417H17.8129L14.469 10.6977C14.2033 10.4227 14.0563 10.0543 14.0597 9.67191C14.063 9.28954 14.2164 8.92378 14.4867 8.65339C14.7571 8.383 15.1229 8.22963 15.5053 8.22631C15.8876 8.22299 16.256 8.36998 16.5311 8.63562L22.3644 14.469C22.6364 14.7432 22.789 15.1138 22.789 15.5C22.789 15.8862 22.6364 16.2568 22.3644 16.531L16.5311 22.3644C16.2576 22.6378 15.8867 22.7914 15.5 22.7914C15.1133 22.7914 14.7425 22.6378 14.469 22.3644Z" fill="white"/>
</svg>
