<svg width="48" height="50" viewBox="0 0 48 50" fill="none" xmlns="http://www.w3.org/2000/svg">
<path fill-rule="evenodd" clip-rule="evenodd" d="M14.93 2.67638C17.276 2.56613 18.024 2.54163 24 2.54163C29.976 2.54163 30.724 2.56817 33.068 2.67638C35.412 2.78458 37.012 3.16638 38.412 3.71967C39.878 4.28521 41.208 5.16925 42.308 6.31258C43.428 7.43346 44.292 8.78913 44.844 10.2877C45.388 11.7169 45.76 13.3502 45.868 15.739C45.976 18.1379 46 18.9015 46 25C46 31.1005 45.974 31.864 45.868 34.2589C45.762 36.6477 45.388 38.281 44.844 39.7102C44.292 41.2089 43.4266 42.5669 42.308 43.6894C41.208 44.8327 39.878 45.7147 38.412 46.2782C37.012 46.8335 35.412 47.2133 33.072 47.3235C30.724 47.4338 29.976 47.4583 24 47.4583C18.024 47.4583 17.276 47.4318 14.93 47.3235C12.59 47.2153 10.99 46.8335 9.59 46.2782C8.12184 45.7146 6.79164 44.8312 5.692 43.6894C4.57276 42.5678 3.70663 41.2106 3.154 39.7122C2.612 38.283 2.24 36.6497 2.132 34.261C2.024 31.862 2 31.0984 2 25C2 18.8995 2.026 18.1359 2.132 15.743C2.238 13.3502 2.612 11.7169 3.154 10.2877C3.70745 8.78929 4.57424 7.43206 5.694 6.31054C6.79208 5.16823 8.12094 4.28407 9.588 3.71967C10.988 3.16638 12.588 2.78663 14.928 2.67638H14.93ZM32.89 6.71888C30.57 6.61067 29.874 6.58821 24 6.58821C18.126 6.58821 17.43 6.61067 15.11 6.71888C12.964 6.81892 11.8 7.18438 11.024 7.49267C9.998 7.901 9.264 8.38488 8.494 9.17092C7.76409 9.89582 7.20236 10.7783 6.85 11.7536C6.548 12.5458 6.19 13.734 6.092 15.9248C5.986 18.2931 5.964 19.0036 5.964 25C5.964 30.9963 5.986 31.7068 6.092 34.0752C6.19 36.2659 6.548 37.4541 6.85 38.2463C7.202 39.2202 7.764 40.1042 8.494 40.829C9.204 41.5742 10.07 42.1479 11.024 42.5073C11.8 42.8155 12.964 43.181 15.11 43.281C17.43 43.3893 18.124 43.4117 24 43.4117C29.876 43.4117 30.57 43.3893 32.89 43.281C35.036 43.181 36.2 42.8155 36.976 42.5073C38.002 42.0989 38.736 41.615 39.506 40.829C40.236 40.1042 40.798 39.2202 41.15 38.2463C41.452 37.4541 41.81 36.2659 41.908 34.0752C42.014 31.7068 42.036 30.9963 42.036 25C42.036 19.0036 42.014 18.2931 41.908 15.9248C41.81 13.734 41.452 12.5458 41.15 11.7536C40.75 10.7063 40.276 9.95696 39.506 9.17092C38.7959 8.42586 37.9314 7.85243 36.976 7.49267C36.2 7.18438 35.036 6.81892 32.89 6.71888ZM21.19 31.9233C22.7593 32.5901 24.5068 32.6801 26.1339 32.1779C27.761 31.6757 29.1668 30.6123 30.1112 29.1695C31.0557 27.7267 31.4801 25.994 31.3121 24.2672C31.1441 22.5404 30.394 20.9268 29.19 19.7018C28.4225 18.9188 27.4944 18.3192 26.4727 17.9463C25.4509 17.5734 24.3609 17.4363 23.281 17.5451C22.2011 17.6538 21.1583 18.0056 20.2276 18.5751C19.2969 19.1446 18.5015 19.9177 17.8986 20.8387C17.2957 21.7598 16.9004 22.8058 16.741 23.9015C16.5817 24.9972 16.6623 26.1153 16.9771 27.1754C17.2919 28.2355 17.833 29.2111 18.5614 30.0321C19.2899 30.8531 20.1876 31.499 21.19 31.9233ZM16.004 16.8374C17.054 15.7655 18.3006 14.9152 19.6726 14.335C21.0446 13.7549 22.515 13.4563 24 13.4563C25.485 13.4563 26.9554 13.7549 28.3274 14.335C29.6994 14.9152 30.946 15.7655 31.996 16.8374C33.046 17.9093 33.879 19.1819 34.4473 20.5824C35.0156 21.9829 35.3081 23.484 35.3081 25C35.3081 26.5159 35.0156 28.017 34.4473 29.4175C33.879 30.8181 33.046 32.0906 31.996 33.1625C29.8753 35.3274 26.9991 36.5436 24 36.5436C21.0009 36.5436 18.1247 35.3274 16.004 33.1625C13.8833 30.9977 12.6919 28.0615 12.6919 25C12.6919 21.9384 13.8833 19.0022 16.004 16.8374ZM37.816 15.1755C38.0762 14.9249 38.2845 14.6236 38.4286 14.2893C38.5727 13.9551 38.6496 13.5947 38.6548 13.2296C38.66 12.8645 38.5934 12.502 38.459 12.1636C38.3245 11.8252 38.1249 11.5178 37.8719 11.2596C37.619 11.0014 37.3179 10.7976 36.9864 10.6603C36.6549 10.5231 36.2998 10.4551 35.9421 10.4604C35.5845 10.4657 35.2315 10.5443 34.9041 10.6913C34.5766 10.8384 34.2815 11.0511 34.036 11.3167C33.5586 11.8333 33.2973 12.5195 33.3074 13.2296C33.3175 13.9397 33.5984 14.6178 34.0903 15.12C34.5822 15.6222 35.2465 15.9089 35.9421 15.9192C36.6378 15.9296 37.3099 15.6628 37.816 15.1755Z" fill="#005EFF"/>
</svg>
