<svg width="147" height="110" viewBox="0 0 147 110" fill="none" xmlns="http://www.w3.org/2000/svg">
<path fill-rule="evenodd" clip-rule="evenodd" d="M24.9252 47.2753C25.8434 47.2753 26.7062 47.4576 27.5136 47.8222C28.3276 48.1804 29.0374 48.6818 29.643 49.3264C30.255 49.9646 30.7402 50.733 31.0983 51.6316C31.463 52.5302 31.6453 53.5037 31.6453 54.5521C31.6453 55.6004 31.463 56.5674 31.0983 57.453C30.7402 58.3386 30.255 59.107 29.643 59.7582C29.0309 60.4028 28.3178 60.9107 27.5039 61.2819C26.6964 61.6465 25.8369 61.8289 24.9252 61.8289C24.0136 61.8289 23.1508 61.6465 22.3368 61.2819C21.5294 60.9107 20.8196 60.4028 20.2075 59.7582C19.5954 59.1135 19.1136 58.3484 18.7619 57.4628C18.4103 56.5772 18.2345 55.607 18.2345 54.5521C18.2345 53.6209 18.4103 52.7158 18.7619 51.8367C19.1136 50.9511 19.5987 50.1697 20.2173 49.4925C20.8359 48.8153 21.5489 48.2781 22.3564 47.8808C23.1703 47.4771 24.0266 47.2753 24.9252 47.2753ZM7.64648 25.4058V54.5521C7.64648 57.1437 8.09579 59.527 8.9944 61.7019C9.89953 63.8703 11.1367 65.7456 12.7061 67.328C14.2819 68.9103 16.1182 70.1443 18.2149 71.0299C20.3117 71.9155 22.5485 72.3583 24.9252 72.3583C27.315 72.3583 29.5583 71.9285 31.6551 71.0689C33.7583 70.2029 35.5914 68.982 37.1542 67.4061C38.717 65.8303 39.9477 63.9517 40.8463 61.7703C41.7514 59.5823 42.204 57.1763 42.204 54.5521C42.204 51.9799 41.7514 49.6097 40.8463 47.4413C39.9477 45.2664 38.717 43.378 37.1542 41.7761C35.5979 40.1743 33.7681 38.9273 31.6648 38.0352C29.5681 37.1366 27.3215 36.6873 24.9252 36.6873C24.1243 36.6873 23.3038 36.7686 22.4638 36.9314C21.6303 37.0877 20.8164 37.3189 20.0219 37.6249C19.2275 37.931 18.4754 38.3315 17.7656 38.8263C17.5965 38.9443 17.4586 39.0613 17.3519 39.1774L18.1759 25.4058H7.64648Z" fill="white"/>
<path fill-rule="evenodd" clip-rule="evenodd" d="M43.718 37.8887V56.486C43.718 58.8954 44.1152 61.0833 44.9097 63.0498C45.7041 65.0098 46.8013 66.6801 48.2013 68.0606C49.6013 69.4345 51.226 70.4959 53.0753 71.2448C54.9312 71.9871 56.9075 72.3583 59.0042 72.3583C59.5802 72.3583 60.1422 72.301 60.6904 72.1864C60.2406 72.4877 59.7599 72.7274 59.2484 72.9053C58.6494 73.1202 58.034 73.2276 57.4024 73.2276L51.6883 73.1495V83.7082L57.0312 83.7863C59.421 83.7863 61.6578 83.3337 63.7415 82.4286C65.8253 81.5235 67.6518 80.2928 69.2211 78.7365C70.7904 77.1802 72.0277 75.3569 72.9328 73.2667C73.8379 71.1829 74.3002 68.9527 74.3198 66.5759V37.8887H63.761V56.486C63.761 57.1698 63.6308 57.8372 63.3703 58.4884C63.1164 59.1331 62.7648 59.7126 62.3154 60.227C61.8726 60.7414 61.3647 61.1484 60.7917 61.448C60.2187 61.741 59.6229 61.8875 59.0042 61.8875C58.314 61.8875 57.6791 61.7801 57.0996 61.5652C56.5265 61.3503 56.0284 61.028 55.6051 60.5982C55.1884 60.1684 54.8465 59.6149 54.5795 58.9377C54.3191 58.2605 54.1888 57.4433 54.1888 56.486V37.8887H43.718Z" fill="white"/>
<path fill-rule="evenodd" clip-rule="evenodd" d="M119.807 47.2753C120.151 47.2753 120.466 47.2914 120.752 47.3238L113.471 57.1862C113.414 56.9632 113.361 56.7233 113.312 56.4665C113.253 56.1214 113.211 55.7828 113.185 55.4507C113.159 55.1121 113.146 54.8125 113.146 54.5521C113.146 53.3995 113.321 52.3772 113.673 51.4851C114.025 50.5864 114.497 49.8278 115.089 49.2092C115.688 48.5906 116.392 48.1153 117.199 47.7832C118.007 47.4446 118.876 47.2753 119.807 47.2753ZM79.6137 25.4058V37.9473H75.7165V48.4181H79.6137V56.486C79.6137 58.5893 80.011 60.5689 80.8054 62.4247C81.6063 64.274 82.7035 65.8954 84.097 67.2889C85.4905 68.6824 87.112 69.7796 88.9613 70.5806C90.8171 71.375 92.7967 71.7722 94.8999 71.7722H102.216V61.3014H94.8999C94.2357 61.3014 93.6074 61.1744 93.0148 60.9205C92.4222 60.66 91.9078 60.3149 91.4715 59.8851C91.0418 59.4489 90.7031 58.9409 90.4557 58.3614C90.2083 57.7819 90.0845 57.1567 90.0845 56.486V48.4181H102.216V37.9473H90.0845V25.4058H79.6137ZM119.807 36.6873C117.437 36.6873 115.203 37.1203 113.107 37.9863C111.01 38.8459 109.174 40.0571 107.598 41.6199C106.022 43.1827 104.781 45.0678 103.876 47.2753C102.978 49.4827 102.528 51.9083 102.528 54.5521C102.528 57.1437 102.978 59.527 103.876 61.7019C104.781 63.8703 106.019 65.7456 107.588 67.328C109.164 68.9103 111 70.1443 113.097 71.0299C115.194 71.9155 117.43 72.3583 119.807 72.3583C121.214 72.3583 122.584 72.1955 123.919 71.8699C125.261 71.5443 126.537 71.0657 127.748 70.4341C128.966 69.8024 130.096 69.034 131.137 68.1289C132.179 67.2173 133.299 65.9084 134.497 64.2024L126.615 56.2711C125.86 57.9772 125.274 59.0712 124.857 59.553C124.44 60.0349 123.965 60.4451 123.431 60.7837C122.897 61.1158 122.324 61.3731 121.712 61.5554C121.1 61.7377 120.465 61.8289 119.807 61.8289C119.624 61.8289 119.446 61.8245 119.272 61.8158L134.507 44.8236C133.342 43.1696 132.231 41.8868 131.177 40.9752C130.128 40.0571 128.998 39.2822 127.787 38.6505C126.576 38.0189 125.296 37.5338 123.949 37.1952C122.601 36.8566 121.22 36.6873 119.807 36.6873Z" fill="white"/>
<path fill-rule="evenodd" clip-rule="evenodd" d="M106.237 32.8315C108.421 37.6281 113.426 40.8226 118.864 40.8902C124.302 40.9577 129.07 37.8847 130.892 33.1379L128.975 32.4077C127.458 36.3554 123.46 38.9026 118.879 38.84C114.298 38.7774 110.057 36.1176 108.168 32.1233L106.237 32.8315Z" fill="white"/>
<path fill-rule="evenodd" clip-rule="evenodd" d="M101.549 42.4884C101.549 32.6396 109.531 24.6555 119.377 24.6555C129.223 24.6555 137.205 32.6396 137.205 42.4884C132.996 36.8754 126.391 33.572 119.377 33.572C112.363 33.572 105.758 36.8754 101.549 42.4884Z" fill="white"/>
<path fill-rule="evenodd" clip-rule="evenodd" d="M116.851 27.7148L118.535 27.7148L119.377 26.2568L120.22 27.7148L121.904 27.7148L121.062 29.1728L121.904 30.6309L120.22 30.6309L119.377 32.0889L118.535 30.6309L116.851 30.6309L117.693 29.1728L116.851 27.7148Z" fill="white"/>
<path d="M101.549 42.4883C100.244 42.4883 99.5911 43.577 98.9385 44.6657C98.2859 45.7544 97.6333 46.8431 96.3281 46.8431" stroke="white" stroke-width="2" stroke-miterlimit="10" stroke-linejoin="round"/>
<path d="M101.549 42.4883C100.394 42.4883 99.2393 45.1493 99.2393 47.8102" stroke="white" stroke-width="2" stroke-miterlimit="10" stroke-linejoin="round"/>
<path d="M137.205 42.4883C138.709 42.4883 140.213 44.6657 140.213 46.8431" stroke="white" stroke-width="2" stroke-miterlimit="10" stroke-linejoin="round"/>
<path d="M137.205 42.4883C138.639 42.4883 139.356 43.3821 140.073 44.2759C140.79 45.1697 141.507 46.0635 142.941 46.0635" stroke="white" stroke-width="2" stroke-miterlimit="10" stroke-linejoin="round"/>
<path fill-rule="evenodd" clip-rule="evenodd" d="M109.145 31.0879C109.145 30.1006 109.945 29.3003 110.933 29.3003C111.407 29.3003 111.861 29.4886 112.197 29.8239C112.532 30.1591 112.72 30.6138 112.72 31.0879C112.72 32.0752 111.92 32.8755 110.933 32.8755C109.945 32.8755 109.145 32.0752 109.145 31.0879Z" fill="white"/>
<path d="M112.197 29.8237L109.668 32.3518M109.668 29.8237L112.197 32.3518L109.668 29.8237Z" stroke="white" stroke-miterlimit="10" stroke-linejoin="round"/>
<path fill-rule="evenodd" clip-rule="evenodd" d="M109.145 31.0879C109.145 30.1006 109.945 29.3003 110.933 29.3003C111.407 29.3003 111.861 29.4886 112.197 29.8239C112.532 30.1591 112.72 30.6138 112.72 31.0879C112.72 32.0752 111.92 32.8755 110.933 32.8755C109.945 32.8755 109.145 32.0752 109.145 31.0879V31.0879Z" stroke="white" stroke-miterlimit="10" stroke-linejoin="round"/>
<path fill-rule="evenodd" clip-rule="evenodd" d="M126.036 31.0879C126.036 30.1006 126.836 29.3003 127.823 29.3003C128.298 29.3003 128.752 29.4886 129.087 29.8239C129.423 30.1591 129.611 30.6138 129.611 31.0879C129.611 32.0752 128.811 32.8755 127.823 32.8755C126.836 32.8755 126.036 32.0752 126.036 31.0879Z" fill="white"/>
<path d="M129.088 29.8237L126.559 32.3518M126.559 29.8237L129.088 32.3518L126.559 29.8237Z" stroke="white" stroke-miterlimit="10" stroke-linejoin="round"/>
<path fill-rule="evenodd" clip-rule="evenodd" d="M126.036 31.0879C126.036 30.1006 126.836 29.3003 127.823 29.3003C128.298 29.3003 128.752 29.4886 129.087 29.8239C129.423 30.1591 129.611 30.6138 129.611 31.0879C129.611 32.0752 128.811 32.8755 127.823 32.8755C126.836 32.8755 126.036 32.0752 126.036 31.0879V31.0879Z" stroke="white" stroke-miterlimit="10" stroke-linejoin="round"/>
<path fill-rule="evenodd" clip-rule="evenodd" d="M75.6418 78.3862C75.408 78.3862 75.189 78.4301 74.9849 78.5179C74.7808 78.6047 74.603 78.7237 74.4515 78.8752C74.3 79.0267 74.1804 79.2045 74.0926 79.4086C74.0059 79.6128 73.9625 79.8317 73.9625 80.0655C73.9625 80.2993 74.0059 80.5183 74.0926 80.7224C74.1804 80.9266 74.3 81.1055 74.4515 81.2591C74.603 81.4117 74.7808 81.5324 74.9849 81.6213C75.189 81.7102 75.408 81.7547 75.6418 81.7547H77.0445C77.1367 81.7547 77.2157 81.7695 77.2815 81.7991C77.3474 81.8288 77.3803 81.8913 77.3803 81.9868C77.3803 82.079 77.3474 82.1581 77.2815 82.2239C77.2157 82.2898 77.1367 82.3227 77.0445 82.3227H73.9625V83.6661H77.0445C77.275 83.6661 77.4923 83.6228 77.6964 83.5361C77.9006 83.4483 78.0784 83.3281 78.2298 83.1755C78.3813 83.0218 78.5015 82.844 78.5904 82.6421C78.6793 82.439 78.7237 82.2206 78.7237 81.9868C78.7237 81.7563 78.6793 81.544 78.5904 81.3497C78.5015 81.1554 78.3813 80.9891 78.2298 80.8508C78.0784 80.7125 77.9006 80.605 77.6964 80.5282C77.4923 80.4502 77.275 80.4113 77.0445 80.4113H75.6418C75.5496 80.4113 75.4706 80.3778 75.4047 80.3108C75.3389 80.2428 75.3059 80.161 75.3059 80.0655C75.3059 79.9733 75.3389 79.8943 75.4047 79.8284C75.4706 79.7626 75.5496 79.7297 75.6418 79.7297H78.3731V78.3862H75.6418Z" fill="white"/>
<path fill-rule="evenodd" clip-rule="evenodd" d="M81.86 79.537C81.9259 79.537 81.989 79.5403 82.0494 79.5469C82.1108 79.5535 82.1728 79.5683 82.2354 79.5913L80.6648 81.6756C80.6384 81.6295 80.617 81.5768 80.6006 81.5176C80.5841 81.4583 80.5698 81.3968 80.5578 81.3332C80.5468 81.2684 80.5386 81.2048 80.5331 81.1422C80.5287 81.0796 80.5265 81.0237 80.5265 80.9743C80.5265 80.7536 80.5611 80.5555 80.6302 80.3799C80.6994 80.2032 80.7937 80.0523 80.9134 79.9272C81.0341 79.8021 81.1757 79.706 81.3381 79.6391C81.5017 79.571 81.6756 79.537 81.86 79.537ZM81.86 78.1738C81.488 78.1738 81.1378 78.2413 80.8097 78.3763C80.4826 78.5113 80.1961 78.7007 79.9503 78.9443C79.7055 79.188 79.5123 79.4827 79.3708 79.8284C79.2292 80.1741 79.1584 80.5561 79.1584 80.9743C79.1584 81.3826 79.2292 81.7574 79.3708 82.0987C79.5123 82.439 79.7055 82.7326 79.9503 82.9795C80.1961 83.2265 80.4826 83.4191 80.8097 83.5574C81.1378 83.6957 81.488 83.7648 81.86 83.7648C82.0806 83.7648 82.2952 83.739 82.5037 83.6874C82.7134 83.637 82.9126 83.5623 83.1014 83.4635C83.2912 83.3648 83.4674 83.2446 83.6298 83.103C83.7934 82.9614 83.9377 82.8017 84.0628 82.6239L83.075 81.6312C83.0223 81.7497 82.9537 81.8578 82.8692 81.9555C82.7858 82.0521 82.6903 82.1344 82.5828 82.2024C82.4763 82.2694 82.3622 82.321 82.2403 82.3572C82.1185 82.3934 81.9917 82.4115 81.86 82.4115C81.8073 82.4115 81.7547 82.4093 81.702 82.4049C81.6493 82.3995 81.5966 82.3885 81.5439 82.372L84.0727 79.3246C83.9476 79.1468 83.8027 78.9866 83.6381 78.8439C83.4734 78.7001 83.2962 78.5788 83.1063 78.48C82.9175 78.3813 82.7178 78.3055 82.507 78.2529C82.2963 78.2002 82.0806 78.1738 81.86 78.1738Z" fill="white"/>
<path fill-rule="evenodd" clip-rule="evenodd" d="M84.7493 78.3765V83.6662H86.0977V80.7522C86.0977 80.6106 86.124 80.4772 86.1767 80.3521C86.2294 80.227 86.3018 80.1183 86.394 80.0261C86.4862 79.9339 86.5949 79.8615 86.72 79.8088C86.8451 79.7561 86.9785 79.7298 87.1201 79.7298H88.3104V78.3863H87.1201C86.8237 78.3863 86.5373 78.4401 86.2607 78.5477C85.9841 78.6541 85.7371 78.8062 85.5198 79.0037L85.0753 78.3765H84.7493Z" fill="white"/>
<path fill-rule="evenodd" clip-rule="evenodd" d="M89.6192 76.0403C89.4941 76.0403 89.3761 76.0644 89.2653 76.1127C89.1555 76.1599 89.06 76.2241 88.9788 76.3053C88.8987 76.3855 88.8345 76.481 88.7862 76.5918C88.739 76.7016 88.7154 76.8174 88.7154 76.9392C88.7154 77.0643 88.739 77.1812 88.7862 77.2899C88.8345 77.3985 88.8987 77.4935 88.9788 77.5747C89.06 77.6548 89.1555 77.719 89.2653 77.7673C89.3761 77.8145 89.4941 77.8381 89.6192 77.8381C89.7444 77.8381 89.8618 77.8145 89.9715 77.7673C90.0824 77.719 90.179 77.6548 90.2613 77.5747C90.3436 77.4935 90.4084 77.3985 90.4556 77.2899C90.5039 77.1812 90.528 77.0643 90.528 76.9392C90.528 76.8174 90.5039 76.7016 90.4556 76.5918C90.4084 76.481 90.3436 76.3855 90.2613 76.3053C90.179 76.2241 90.0824 76.1599 89.9715 76.1127C89.8618 76.0644 89.7444 76.0403 89.6192 76.0403ZM88.9377 78.3765V83.6662H90.2959V78.3765H88.9377Z" fill="white"/>
<path fill-rule="evenodd" clip-rule="evenodd" d="M93.7334 79.537C93.9178 79.537 94.0912 79.5776 94.2537 79.6588C94.4172 79.7389 94.5599 79.8459 94.6817 79.9798C94.8036 80.1126 94.8996 80.2657 94.9698 80.4392C95.0412 80.6115 95.0768 80.7898 95.0768 80.9742C95.0768 81.1586 95.0412 81.3375 94.9698 81.5109C94.8996 81.6833 94.8036 81.8364 94.6817 81.9703C94.5599 82.1031 94.4172 82.2101 94.2537 82.2913C94.0912 82.3714 93.9178 82.4115 93.7334 82.4115C93.549 82.4115 93.3751 82.3736 93.2115 82.2979C93.0491 82.2222 92.9075 82.1184 92.7868 81.9867C92.6672 81.855 92.5728 81.7019 92.5036 81.5274C92.4345 81.3529 92.3999 81.1685 92.3999 80.9742C92.3999 80.7503 92.4345 80.5495 92.5036 80.3717C92.5728 80.1938 92.6672 80.0435 92.7868 79.9206C92.9075 79.7965 93.0491 79.7016 93.2115 79.6357C93.3751 79.5699 93.549 79.537 93.7334 79.537ZM95.0768 76.2722V78.7418C95.0044 78.6364 94.9155 78.5475 94.8101 78.475C94.7048 78.4026 94.5917 78.3444 94.471 78.3005C94.3514 78.2555 94.2279 78.2232 94.1006 78.2034C93.9744 78.1836 93.852 78.1738 93.7334 78.1738C93.3614 78.1738 93.0112 78.2446 92.6831 78.3861C92.356 78.5277 92.0695 78.7237 91.8237 78.9739C91.5789 79.2241 91.3858 79.5205 91.2442 79.8629C91.1026 80.2054 91.0318 80.5758 91.0318 80.9742C91.0318 81.3759 91.1026 81.7475 91.2442 82.0888C91.3858 82.4291 91.5789 82.7238 91.8237 82.9729C92.0695 83.221 92.356 83.4152 92.6831 83.5557C93.0112 83.6951 93.3614 83.7648 93.7334 83.7648C93.9046 83.7648 94.0731 83.7434 94.2389 83.7006C94.4057 83.6578 94.5681 83.5996 94.7262 83.5261C94.8842 83.4515 95.0346 83.3642 95.1773 83.2643C95.3211 83.1633 95.4571 83.0552 95.5856 82.94L96.1091 83.666H96.4351V76.2722H95.0768Z" fill="white"/>
<path fill-rule="evenodd" clip-rule="evenodd" d="M100.762 75.6746L99.2947 77.0427L99.8528 77.7786L101.572 76.7068L100.762 75.6746ZM99.8726 79.5369C100.057 79.5369 100.23 79.571 100.393 79.639C100.556 79.706 100.699 79.8031 100.821 79.9304C100.943 80.0566 101.039 80.2081 101.109 80.3848C101.18 80.5604 101.216 80.7569 101.216 80.9742C101.216 81.1882 101.18 81.3842 101.109 81.562C101.039 81.7398 100.943 81.8912 100.821 82.0164C100.699 82.1415 100.556 82.2386 100.393 82.3078C100.23 82.3769 100.057 82.4115 99.8726 82.4115C99.6882 82.4115 99.5142 82.3747 99.3507 82.3012C99.1883 82.2265 99.0467 82.125 98.926 81.9966C98.8063 81.8682 98.7119 81.7167 98.6428 81.5422C98.5736 81.3677 98.5391 81.1784 98.5391 80.9742C98.5391 80.7569 98.5736 80.5604 98.6428 80.3848C98.7119 80.2081 98.8063 80.0566 98.926 79.9304C99.0467 79.8031 99.1883 79.706 99.3507 79.639C99.5142 79.571 99.6882 79.5369 99.8726 79.5369ZM99.8726 78.1737C99.5005 78.1737 99.1504 78.2445 98.8222 78.3861C98.4952 78.5277 98.2087 78.7231 97.9629 78.9722C97.7181 79.2203 97.5249 79.5155 97.3833 79.858C97.2418 80.2004 97.171 80.5725 97.171 80.9742C97.171 81.3693 97.2418 81.7376 97.3833 82.0789C97.5249 82.4192 97.7181 82.7139 97.9629 82.963C98.2087 83.2111 98.4952 83.407 98.8222 83.5508C99.1504 83.6935 99.5005 83.7648 99.8726 83.7648C100.248 83.7648 100.599 83.6935 100.926 83.5508C101.254 83.407 101.54 83.2111 101.784 82.963C102.028 82.7139 102.22 82.4192 102.362 82.0789C102.503 81.7376 102.574 81.3693 102.574 80.9742C102.574 80.5527 102.503 80.1702 102.362 79.8267C102.22 79.4821 102.028 79.1874 101.784 78.9426C101.54 78.6967 101.254 78.5074 100.926 78.3746C100.599 78.2407 100.248 78.1737 99.8726 78.1737Z" fill="white"/>
<path fill-rule="evenodd" clip-rule="evenodd" d="M106.861 76.0403C106.733 76.0403 106.613 76.0644 106.502 76.1127C106.393 76.1599 106.297 76.2241 106.214 76.3053C106.132 76.3855 106.067 76.481 106.018 76.5918C105.971 76.7016 105.948 76.8174 105.948 76.9392C105.948 77.0643 105.971 77.1812 106.018 77.2899C106.067 77.3985 106.132 77.4935 106.214 77.5747C106.297 77.6548 106.393 77.719 106.502 77.7673C106.613 77.8145 106.733 77.8381 106.861 77.8381C106.983 77.8381 107.099 77.8145 107.209 77.7673C107.32 77.719 107.415 77.6548 107.495 77.5747C107.576 77.4935 107.641 77.3985 107.688 77.2899C107.736 77.1812 107.76 77.0643 107.76 76.9392C107.76 76.8174 107.736 76.7016 107.688 76.5918C107.641 76.481 107.576 76.3855 107.495 76.3053C107.415 76.2241 107.32 76.1599 107.209 76.1127C107.099 76.0644 106.983 76.0403 106.861 76.0403ZM106.16 78.3765V82.9896C106.16 83.1674 106.127 83.337 106.061 83.4983C105.995 83.6596 105.905 83.8018 105.791 83.9247C105.678 84.0487 105.544 84.1475 105.389 84.2211C105.235 84.2957 105.067 84.333 104.886 84.333L104.14 84.3231V85.6814H104.826C105.073 85.6814 105.312 85.649 105.541 85.5842C105.769 85.5206 105.983 85.43 106.181 85.3126C106.381 85.1962 106.563 85.0563 106.728 84.8928C106.893 84.7303 107.034 84.5492 107.153 84.3495C107.271 84.1508 107.362 83.9362 107.426 83.7057C107.491 83.4753 107.525 83.2365 107.528 82.9896H107.538V78.3765H106.16Z" fill="white"/>
<path fill-rule="evenodd" clip-rule="evenodd" d="M111.785 75.9858L110.319 77.354L110.877 78.0899L112.595 77.0181L111.785 75.9858ZM108.486 78.3764V81.3003C108.486 81.679 108.548 82.0209 108.671 82.326C108.795 82.63 108.964 82.8885 109.179 83.1014C109.396 83.3133 109.647 83.4768 109.933 83.592C110.22 83.7073 110.526 83.7649 110.852 83.7649C111 83.7649 111.146 83.7457 111.288 83.7073C111.432 83.67 111.571 83.6195 111.706 83.5558C111.841 83.4911 111.97 83.4153 112.093 83.3286C112.217 83.2408 112.334 83.1475 112.442 83.0487L112.887 83.6661H113.213V78.3764H111.864V81.3003C111.864 81.4419 111.838 81.5796 111.785 81.7135C111.733 81.8463 111.66 81.9654 111.568 82.0708C111.476 82.1762 111.368 82.2612 111.244 82.326C111.121 82.3896 110.99 82.4215 110.852 82.4215C110.71 82.4215 110.578 82.3968 110.454 82.3474C110.331 82.298 110.223 82.2256 110.131 82.1301C110.039 82.0346 109.965 81.9171 109.91 81.7777C109.857 81.6373 109.83 81.4781 109.83 81.3003V78.3764H108.486Z" fill="white"/>
<path fill-rule="evenodd" clip-rule="evenodd" d="M116.611 78.2727C116.311 78.2727 116.024 78.3265 115.748 78.434C115.474 78.5405 115.228 78.6925 115.011 78.8901L114.566 78.3764H114.24V83.6662H115.589V80.6435C115.589 80.5052 115.615 80.3746 115.668 80.2516C115.72 80.1276 115.793 80.0195 115.885 79.9273C115.977 79.8351 116.086 79.7627 116.211 79.71C116.336 79.6573 116.469 79.6309 116.611 79.6309C116.749 79.6309 116.879 79.6573 117.001 79.71C117.123 79.7627 117.23 79.8351 117.322 79.9273C117.414 80.0195 117.487 80.1276 117.539 80.2516C117.592 80.3746 117.618 80.5052 117.618 80.6435V83.6662H118.967V80.6435C118.967 80.3175 118.905 80.0107 118.781 79.7232C118.658 79.4345 118.489 79.1826 118.275 78.9675C118.061 78.7512 117.811 78.5817 117.525 78.4587C117.238 78.3347 116.934 78.2727 116.611 78.2727Z" fill="white"/>
<path fill-rule="evenodd" clip-rule="evenodd" d="M120.607 76.0403C120.481 76.0403 120.363 76.0644 120.253 76.1127C120.143 76.1599 120.047 76.2241 119.966 76.3053C119.886 76.3855 119.822 76.481 119.773 76.5918C119.726 76.7016 119.703 76.8174 119.703 76.9392C119.703 77.0643 119.726 77.1812 119.773 77.2899C119.822 77.3985 119.886 77.4935 119.966 77.5747C120.047 77.6548 120.143 77.719 120.253 77.7673C120.363 77.8145 120.481 77.8381 120.607 77.8381C120.732 77.8381 120.849 77.8145 120.959 77.7673C121.07 77.719 121.166 77.6548 121.249 77.5747C121.331 77.4935 121.396 77.3985 121.443 77.2899C121.491 77.1812 121.515 77.0643 121.515 76.9392C121.515 76.8174 121.491 76.7016 121.443 76.5918C121.396 76.481 121.331 76.3855 121.249 76.3053C121.166 76.2241 121.07 76.1599 120.959 76.1127C120.849 76.0644 120.732 76.0403 120.607 76.0403ZM119.925 78.3765V83.6662H121.283V78.3765H119.925Z" fill="white"/>
<path fill-rule="evenodd" clip-rule="evenodd" d="M124.721 79.537C124.905 79.537 125.079 79.571 125.241 79.6391C125.405 79.706 125.547 79.8032 125.669 79.9305C125.791 80.0567 125.887 80.2082 125.957 80.3849C126.028 80.5605 126.064 80.7569 126.064 80.9743C126.064 81.1883 126.028 81.3842 125.957 81.562C125.887 81.7398 125.791 81.8913 125.669 82.0164C125.547 82.1415 125.405 82.2387 125.241 82.3078C125.079 82.377 124.905 82.4115 124.721 82.4115C124.536 82.4115 124.362 82.3748 124.199 82.3012C124.036 82.2266 123.895 82.1251 123.774 81.9966C123.654 81.8682 123.56 81.7168 123.491 81.5422C123.422 81.3677 123.387 81.1784 123.387 80.9743C123.387 80.7569 123.422 80.5605 123.491 80.3849C123.56 80.2082 123.654 80.0567 123.774 79.9305C123.895 79.8032 124.036 79.706 124.199 79.6391C124.362 79.571 124.536 79.537 124.721 79.537ZM124.721 78.1738C124.349 78.1738 123.999 78.2446 123.67 78.3862C123.343 78.5278 123.057 78.7232 122.811 78.9723C122.566 79.2204 122.373 79.5156 122.231 79.858C122.09 80.2005 122.019 80.5726 122.019 80.9743C122.019 81.3694 122.09 81.7376 122.231 82.079C122.373 82.4192 122.566 82.7139 122.811 82.963C123.057 83.2111 123.343 83.407 123.67 83.5508C123.999 83.6935 124.349 83.7648 124.721 83.7648C125.096 83.7648 125.447 83.6935 125.774 83.5508C126.103 83.407 126.388 83.2111 126.632 82.963C126.876 82.7139 127.068 82.4192 127.21 82.079C127.352 81.7376 127.422 81.3694 127.422 80.9743C127.422 80.5528 127.352 80.1703 127.21 79.8268C127.068 79.4821 126.876 79.1874 126.632 78.9427C126.388 78.6968 126.103 78.5075 125.774 78.3747C125.447 78.2408 125.096 78.1738 124.721 78.1738Z" fill="white"/>
<path fill-rule="evenodd" clip-rule="evenodd" d="M128.168 78.3765V83.6662H129.517V80.7522C129.517 80.6106 129.543 80.4772 129.596 80.3521C129.648 80.227 129.721 80.1183 129.813 80.0261C129.905 79.9339 130.014 79.8615 130.139 79.8088C130.264 79.7561 130.397 79.7298 130.539 79.7298H131.729V78.3863H130.539C130.243 78.3863 129.956 78.4401 129.68 78.5477C129.403 78.6541 129.156 78.8062 128.939 79.0037L128.494 78.3765H128.168Z" fill="white"/>
<path fill-rule="evenodd" clip-rule="evenodd" d="M101.549 42.4884C101.549 32.6396 109.531 24.6555 119.377 24.6555C129.223 24.6555 137.205 32.6396 137.205 42.4884C136.566 33.1106 128.774 25.8305 119.377 25.8305C109.98 25.8305 102.188 33.1106 101.549 42.4884Z" fill="white"/>
</svg>
