<svg width="77" height="58" viewBox="0 0 77 58" fill="none" xmlns="http://www.w3.org/2000/svg">
<g clip-path="url(#clip0_1_46)">
<path fill-rule="evenodd" clip-rule="evenodd" d="M13.4158 24.9971C13.8916 24.9971 14.3387 25.0916 14.7571 25.2806C15.1789 25.4661 15.5466 25.726 15.8604 26.06C16.1776 26.3907 16.429 26.7888 16.6146 27.2545C16.8035 27.7201 16.898 28.2246 16.898 28.7678C16.898 29.3111 16.8035 29.8122 16.6146 30.2711C16.429 30.7299 16.1776 31.1281 15.8604 31.4655C15.5433 31.7996 15.1738 32.0628 14.752 32.2551C14.3336 32.4441 13.8882 32.5385 13.4158 32.5385C12.9434 32.5385 12.4963 32.4441 12.0746 32.2551C11.6562 32.0628 11.2884 31.7996 10.9712 31.4655C10.654 31.1315 10.4043 30.735 10.2221 30.2761C10.0399 29.8172 9.94879 29.3145 9.94879 28.7678C9.94879 28.2853 10.0399 27.8163 10.2221 27.3608C10.4043 26.9019 10.6557 26.497 10.9762 26.146C11.2968 25.7951 11.6663 25.5168 12.0847 25.3109C12.5065 25.1017 12.9502 24.9971 13.4158 24.9971V24.9971ZM4.46228 13.6647V28.7678C4.46228 30.1108 4.6951 31.3457 5.16075 32.4727C5.62977 33.5964 6.27087 34.5681 7.08406 35.3881C7.90063 36.208 8.85216 36.8474 9.93867 37.3063C11.0252 37.7652 12.1842 37.9947 13.4158 37.9947C14.6542 37.9947 15.8166 37.772 16.9031 37.3266C17.993 36.8778 18.9428 36.2451 19.7526 35.4286C20.5624 34.612 21.2002 33.6385 21.6658 32.5082C22.1348 31.3744 22.3694 30.1276 22.3694 28.7678C22.3694 27.435 22.1348 26.2068 21.6658 25.0832C21.2002 23.9562 20.5624 22.9776 19.7526 22.1476C18.9462 21.3175 17.998 20.6714 16.9081 20.2091C15.8216 19.7434 14.6575 19.5106 13.4158 19.5106C13.0008 19.5106 12.5756 19.5528 12.1404 19.6371C11.7085 19.7181 11.2867 19.8379 10.875 19.9965C10.4634 20.1551 10.0736 20.3626 9.70584 20.619C9.61819 20.6802 9.54673 20.7408 9.49147 20.801L9.91842 13.6647H4.46228Z" fill="white"/>
<path fill-rule="evenodd" clip-rule="evenodd" d="M23.1539 20.1332V29.77C23.1539 31.0185 23.3597 32.1522 23.7714 33.1712C24.183 34.1869 24.7516 35.0524 25.477 35.7677C26.2025 36.4797 27.0444 37.0297 28.0027 37.4177C28.9643 37.8024 29.9884 37.9947 31.0749 37.9947C31.3733 37.9947 31.6646 37.965 31.9486 37.9056C31.7156 38.0618 31.4665 38.1859 31.2014 38.2781C30.891 38.3895 30.5722 38.4452 30.2448 38.4452L27.2839 38.4047V43.876L30.0525 43.9165C31.2909 43.9165 32.4499 43.682 33.5297 43.213C34.6094 42.7439 35.5559 42.1062 36.3691 41.2998C37.1823 40.4933 37.8234 39.5485 38.2924 38.4654C38.7614 37.3856 39.001 36.23 39.0111 34.9984V20.1332H33.5398V29.77C33.5398 30.1243 33.4723 30.4701 33.3373 30.8076C33.2057 31.1416 33.0235 31.4419 32.7907 31.7085C32.5613 31.9751 32.2981 32.1859 32.0011 32.3412C31.7042 32.493 31.3955 32.5689 31.0749 32.5689C30.7172 32.5689 30.3883 32.5132 30.0879 32.4019C29.791 32.2905 29.5329 32.1235 29.3136 31.9008C29.0976 31.6781 28.9205 31.3913 28.7821 31.0404C28.6471 30.6895 28.5797 30.266 28.5797 29.77V20.1332H23.1539Z" fill="white"/>
<path fill-rule="evenodd" clip-rule="evenodd" d="M62.5819 24.9971C62.7601 24.9971 62.9233 25.0055 63.0714 25.0223L59.2987 30.1328C59.2692 30.0172 59.2417 29.8929 59.2161 29.7599C59.1857 29.581 59.1638 29.4056 59.1503 29.2335C59.1368 29.058 59.13 28.9028 59.13 28.7678C59.13 28.1706 59.2212 27.6408 59.4034 27.1786C59.5856 26.7129 59.8302 26.3198 60.1373 25.9993C60.4477 25.6787 60.8121 25.4324 61.2305 25.2603C61.6489 25.0849 62.0994 24.9971 62.5819 24.9971V24.9971ZM41.7544 13.6647V20.1635H39.7349V25.5893H41.7544V29.77C41.7544 30.8599 41.9602 31.8856 42.3719 32.8473C42.7869 33.8056 43.3555 34.6458 44.0776 35.3678C44.7997 36.0899 45.6398 36.6585 46.5981 37.0735C47.5598 37.4852 48.5856 37.691 49.6754 37.691H53.4664V32.2652H49.6754C49.3313 32.2652 49.0056 32.1994 48.6986 32.0678C48.3915 31.9329 48.125 31.754 47.8989 31.5313C47.6762 31.3053 47.5007 31.0421 47.3725 30.7418C47.2443 30.4415 47.1802 30.1175 47.1802 29.77V25.5893H53.4664V20.1635H47.1802V13.6647H41.7544ZM62.5819 19.5106C61.3537 19.5106 60.1963 19.735 59.1098 20.1838C58.0233 20.6292 57.0718 21.2568 56.2552 22.0666C55.4386 22.8764 54.7958 23.8533 54.3268 24.9971C53.8612 26.141 53.6284 27.3979 53.6284 28.7678C53.6284 30.1108 53.8612 31.3457 54.3268 32.4727C54.7958 33.5964 55.4369 34.5681 56.2501 35.3881C57.0667 36.208 58.0182 36.8474 59.1047 37.3063C60.1912 37.7652 61.3503 37.9947 62.5819 37.9947C63.3107 37.9947 64.021 37.9103 64.7127 37.7416C65.4078 37.5729 66.0692 37.3249 66.6968 36.9976C67.3278 36.6703 67.9132 36.2721 68.4531 35.8031C68.9929 35.3307 69.5733 34.6525 70.1942 33.7684L66.1097 29.6586C65.7182 30.5427 65.4146 31.1096 65.1986 31.3592C64.9827 31.6089 64.7363 31.8215 64.4597 31.997C64.183 32.1691 63.886 32.3023 63.5689 32.3968C63.2517 32.4913 62.9227 32.5385 62.5819 32.5385C62.4872 32.5385 62.3947 32.5363 62.3046 32.5318L70.1992 23.7267C69.5952 22.8697 69.0199 22.2049 68.4733 21.7325C67.9301 21.2568 67.3446 20.8552 66.717 20.5279C66.0894 20.2006 65.4264 19.9493 64.7279 19.7738C64.0294 19.5983 63.3141 19.5106 62.5819 19.5106V19.5106Z" fill="white"/>
<path fill-rule="evenodd" clip-rule="evenodd" d="M55.5499 17.5127C56.6816 19.9982 59.2754 21.6536 62.0933 21.6886C64.9112 21.7236 67.3818 20.1312 68.3259 17.6715L67.3326 17.2931C66.5465 19.3388 64.4748 20.6587 62.1011 20.6262C59.7273 20.5938 57.5294 19.2156 56.5507 17.1458L55.5499 17.5127Z" fill="white"/>
<path fill-rule="evenodd" clip-rule="evenodd" d="M53.1208 22.5167C53.1208 17.4132 57.2569 13.276 62.359 13.276C67.4611 13.276 71.5972 17.4132 71.5972 22.5167C69.4164 19.6081 65.9938 17.8963 62.359 17.8963C58.7243 17.8963 55.3017 19.6081 53.1208 22.5167Z" fill="white"/>
<path fill-rule="evenodd" clip-rule="evenodd" d="M61.0502 14.8613L61.9229 14.8613L62.3592 14.1058L62.7956 14.8613L63.6683 14.8613L63.2319 15.6168L63.6683 16.3724L62.7956 16.3724L62.3592 17.1279L61.9229 16.3724L61.0502 16.3724L61.4865 15.6168L61.0502 14.8613Z" fill="white"/>
<path d="M53.1208 22.5167C52.4445 22.5167 52.1063 23.0808 51.7682 23.645C51.43 24.2091 51.0918 24.7732 50.4155 24.7732" stroke="white" stroke-width="2" stroke-miterlimit="10" stroke-linejoin="round"/>
<path d="M53.1208 22.5167C52.5224 22.5167 51.924 23.8955 51.924 25.2744" stroke="white" stroke-width="2" stroke-miterlimit="10" stroke-linejoin="round"/>
<path d="M71.5972 22.5167C72.3764 22.5167 73.1556 23.645 73.1556 24.7732" stroke="white" stroke-width="2" stroke-miterlimit="10" stroke-linejoin="round"/>
<path d="M71.5972 22.5167C72.3403 22.5167 72.7118 22.9798 73.0833 23.443C73.4548 23.9061 73.8264 24.3693 74.5694 24.3693" stroke="white" stroke-width="2" stroke-miterlimit="10" stroke-linejoin="round"/>
<path fill-rule="evenodd" clip-rule="evenodd" d="M57.0569 16.6092C57.0569 16.0976 57.4716 15.6829 57.9832 15.6829C58.2289 15.6829 58.4645 15.7805 58.6382 15.9542C58.8119 16.1279 58.9095 16.3635 58.9095 16.6092C58.9095 17.1208 58.4948 17.5355 57.9832 17.5355C57.4716 17.5355 57.0569 17.1208 57.0569 16.6092V16.6092Z" fill="white"/>
<path d="M58.6382 15.9542L57.3282 17.2642M57.3282 15.9542L58.6382 17.2642L57.3282 15.9542Z" stroke="white" stroke-miterlimit="10" stroke-linejoin="round"/>
<path fill-rule="evenodd" clip-rule="evenodd" d="M57.0569 16.6092C57.0569 16.0976 57.4716 15.6829 57.9832 15.6829C58.2289 15.6829 58.4645 15.7805 58.6382 15.9542C58.8119 16.1279 58.9095 16.3635 58.9095 16.6092C58.9095 17.1208 58.4948 17.5355 57.9832 17.5355C57.4716 17.5355 57.0569 17.1208 57.0569 16.6092V16.6092Z" stroke="white" stroke-miterlimit="10" stroke-linejoin="round"/>
<path fill-rule="evenodd" clip-rule="evenodd" d="M65.8094 16.6092C65.8094 16.0976 66.2242 15.6829 66.7358 15.6829C66.9814 15.6829 67.217 15.7805 67.3908 15.9542C67.5645 16.1279 67.6621 16.3635 67.6621 16.6092C67.6621 17.1208 67.2473 17.5355 66.7358 17.5355C66.2242 17.5355 65.8094 17.1208 65.8094 16.6092V16.6092Z" fill="white"/>
<path d="M67.3908 15.9542L66.0808 17.2642M66.0808 15.9542L67.3908 17.2642L66.0808 15.9542Z" stroke="white" stroke-miterlimit="10" stroke-linejoin="round"/>
<path fill-rule="evenodd" clip-rule="evenodd" d="M65.8094 16.6092C65.8094 16.0976 66.2242 15.6829 66.7358 15.6829C66.9814 15.6829 67.217 15.7805 67.3908 15.9542C67.5645 16.1279 67.6621 16.3635 67.6621 16.6092C67.6621 17.1208 67.2473 17.5355 66.7358 17.5355C66.2242 17.5355 65.8094 17.1208 65.8094 16.6092V16.6092Z" stroke="white" stroke-miterlimit="10" stroke-linejoin="round"/>
<path fill-rule="evenodd" clip-rule="evenodd" d="M39.6962 41.1183C39.5751 41.1183 39.4616 41.1411 39.3558 41.1866C39.25 41.2315 39.1579 41.2932 39.0794 41.3717C39.0009 41.4502 38.9389 41.5423 38.8934 41.6481C38.8485 41.7539 38.826 41.8674 38.826 41.9885C38.826 42.1096 38.8485 42.2231 38.8934 42.3289C38.9389 42.4347 39.0009 42.5274 39.0794 42.607C39.1579 42.6861 39.25 42.7486 39.3558 42.7947C39.4616 42.8408 39.5751 42.8638 39.6962 42.8638H40.4231C40.4708 42.8638 40.5118 42.8715 40.5459 42.8868C40.58 42.9022 40.5971 42.9346 40.5971 42.9841C40.5971 43.0319 40.58 43.0728 40.5459 43.1069C40.5118 43.1411 40.4708 43.1581 40.4231 43.1581H38.826V43.8543H40.4231C40.5425 43.8543 40.6551 43.8318 40.7609 43.7869C40.8667 43.7414 40.9588 43.6791 41.0373 43.6C41.1158 43.5204 41.1781 43.4283 41.2241 43.3236C41.2702 43.2184 41.2932 43.1052 41.2932 42.9841C41.2932 42.8647 41.2702 42.7546 41.2241 42.6539C41.1781 42.5533 41.1158 42.4671 41.0373 42.3954C40.9588 42.3238 40.8667 42.268 40.7609 42.2282C40.6551 42.1878 40.5425 42.1677 40.4231 42.1677H39.6962C39.6484 42.1677 39.6075 42.1503 39.5734 42.1156C39.5392 42.0804 39.5222 42.038 39.5222 41.9885C39.5222 41.9407 39.5392 41.8998 39.5734 41.8656C39.6075 41.8315 39.6484 41.8145 39.6962 41.8145H41.1115V41.1183H39.6962Z" fill="white"/>
<path fill-rule="evenodd" clip-rule="evenodd" d="M42.9184 41.7147C42.9525 41.7147 42.9852 41.7164 43.0165 41.7198C43.0483 41.7232 43.0805 41.7309 43.1129 41.7428L42.299 42.8229C42.2854 42.799 42.2743 42.7717 42.2658 42.741C42.2572 42.7102 42.2498 42.6784 42.2436 42.6454C42.2379 42.6119 42.2336 42.5789 42.2308 42.5465C42.2285 42.514 42.2274 42.485 42.2274 42.4594C42.2274 42.3451 42.2453 42.2425 42.2811 42.1515C42.3169 42.0599 42.3658 41.9817 42.4278 41.9169C42.4904 41.852 42.5638 41.8023 42.6479 41.7676C42.7327 41.7323 42.8228 41.7147 42.9184 41.7147V41.7147ZM42.9184 41.0083C42.7256 41.0083 42.5441 41.0433 42.3741 41.1132C42.2046 41.1832 42.0562 41.2813 41.9288 41.4076C41.8019 41.5338 41.7018 41.6865 41.6285 41.8657C41.5551 42.0448 41.5184 42.2427 41.5184 42.4594C41.5184 42.671 41.5551 42.8652 41.6285 43.0421C41.7018 43.2184 41.8019 43.3706 41.9288 43.4985C42.0562 43.6265 42.2046 43.7263 42.3741 43.798C42.5441 43.8696 42.7256 43.9054 42.9184 43.9054C43.0327 43.9054 43.1439 43.8921 43.2519 43.8654C43.3606 43.8392 43.4638 43.8005 43.5616 43.7493C43.66 43.6981 43.7513 43.6359 43.8355 43.5625C43.9202 43.4891 43.995 43.4064 44.0598 43.3142L43.548 42.7998C43.5207 42.8613 43.4851 42.9173 43.4413 42.9679C43.3981 43.0179 43.3486 43.0606 43.2929 43.0959C43.2377 43.1305 43.1786 43.1573 43.1154 43.176C43.0523 43.1948 42.9866 43.2042 42.9184 43.2042C42.8911 43.2042 42.8638 43.2031 42.8365 43.2008C42.8092 43.1979 42.7819 43.1923 42.7546 43.1837L44.0649 41.6046C44.0001 41.5125 43.925 41.4295 43.8397 41.3555C43.7544 41.281 43.6626 41.2182 43.5642 41.167C43.4663 41.1158 43.3628 41.0765 43.2536 41.0492C43.1444 41.022 43.0327 41.0083 42.9184 41.0083V41.0083Z" fill="white"/>
<path fill-rule="evenodd" clip-rule="evenodd" d="M44.4156 41.1132V43.8543H45.1143V42.3443C45.1143 42.2709 45.1279 42.2018 45.1552 42.1369C45.1825 42.0721 45.2201 42.0158 45.2678 41.968C45.3156 41.9203 45.3719 41.8827 45.4368 41.8554C45.5016 41.8281 45.5707 41.8145 45.6441 41.8145H46.2609V41.1183H45.6441C45.4905 41.1183 45.3421 41.1462 45.1987 41.2019C45.0554 41.2571 44.9274 41.3359 44.8148 41.4382L44.5845 41.1132H44.4156Z" fill="white"/>
<path fill-rule="evenodd" clip-rule="evenodd" d="M46.9391 39.9026C46.8742 39.9026 46.8131 39.9151 46.7556 39.9402C46.6988 39.9646 46.6493 39.9979 46.6072 40.04C46.5657 40.0815 46.5324 40.131 46.5074 40.1884C46.4829 40.2453 46.4707 40.3053 46.4707 40.3684C46.4707 40.4333 46.4829 40.4938 46.5074 40.5501C46.5324 40.6065 46.5657 40.6556 46.6072 40.6977C46.6493 40.7393 46.6988 40.7725 46.7556 40.7976C46.8131 40.822 46.8742 40.8342 46.9391 40.8342C47.0039 40.8342 47.0647 40.822 47.1216 40.7976C47.1791 40.7725 47.2291 40.7393 47.2718 40.6977C47.3144 40.6556 47.348 40.6065 47.3724 40.5501C47.3975 40.4938 47.41 40.4333 47.41 40.3684C47.41 40.3053 47.3975 40.2453 47.3724 40.1884C47.348 40.131 47.3144 40.0815 47.2718 40.04C47.2291 39.9979 47.1791 39.9646 47.1216 39.9402C47.0647 39.9151 47.0039 39.9026 46.9391 39.9026ZM46.5859 41.1132V43.8543H47.2897V41.1132H46.5859Z" fill="white"/>
<path fill-rule="evenodd" clip-rule="evenodd" d="M49.071 41.7147C49.1665 41.7147 49.2564 41.7357 49.3405 41.7778C49.4253 41.8193 49.4992 41.8748 49.5623 41.9441C49.6255 42.013 49.6752 42.0923 49.7116 42.1822C49.7486 42.2715 49.7671 42.3639 49.7671 42.4594C49.7671 42.555 49.7486 42.6477 49.7116 42.7375C49.6752 42.8268 49.6255 42.9062 49.5623 42.9756C49.4992 43.0444 49.4253 43.0998 49.3405 43.1419C49.2564 43.1834 49.1665 43.2042 49.071 43.2042C48.9754 43.2042 48.8853 43.1846 48.8005 43.1453C48.7164 43.1061 48.643 43.0523 48.5804 42.9841C48.5184 42.9158 48.4695 42.8365 48.4337 42.7461C48.3979 42.6556 48.3799 42.5601 48.3799 42.4594C48.3799 42.3434 48.3979 42.2393 48.4337 42.1472C48.4695 42.055 48.5184 41.9771 48.5804 41.9134C48.643 41.8492 48.7164 41.8 48.8005 41.7658C48.8853 41.7317 48.9754 41.7147 49.071 41.7147V41.7147ZM49.7671 40.0229V41.3026C49.7296 41.248 49.6835 41.2019 49.6289 41.1644C49.5743 41.1269 49.5157 41.0967 49.4531 41.074C49.3912 41.0506 49.3272 41.0339 49.2612 41.0236C49.1958 41.0134 49.1324 41.0083 49.071 41.0083C48.8782 41.0083 48.6967 41.045 48.5267 41.1183C48.3572 41.1917 48.2088 41.2932 48.0814 41.4229C47.9545 41.5526 47.8544 41.7061 47.7811 41.8836C47.7077 42.061 47.671 42.253 47.671 42.4594C47.671 42.6676 47.7077 42.8601 47.7811 43.037C47.8544 43.2133 47.9545 43.366 48.0814 43.4951C48.2088 43.6236 48.3572 43.7243 48.5267 43.7971C48.6967 43.8693 48.8782 43.9054 49.071 43.9054C49.1597 43.9054 49.247 43.8944 49.3329 43.8722C49.4193 43.85 49.5035 43.8199 49.5854 43.7818C49.6673 43.7431 49.7452 43.6979 49.8191 43.6461C49.8936 43.5938 49.9642 43.5378 50.0307 43.478L50.302 43.8543H50.4709V40.0229H49.7671Z" fill="white"/>
<path fill-rule="evenodd" clip-rule="evenodd" d="M52.7128 39.7132L51.9527 40.4222L52.2419 40.8035L53.1326 40.2481L52.7128 39.7132V39.7132ZM52.2522 41.7147C52.3477 41.7147 52.4376 41.7323 52.5218 41.7675C52.6065 41.8022 52.6804 41.8526 52.7436 41.9185C52.8067 41.984 52.8565 42.0624 52.8929 42.154C52.9298 42.245 52.9483 42.3468 52.9483 42.4594C52.9483 42.5703 52.9298 42.6718 52.8929 42.764C52.8565 42.8561 52.8067 42.9346 52.7436 42.9994C52.6804 43.0643 52.6065 43.1146 52.5218 43.1504C52.4376 43.1863 52.3477 43.2042 52.2522 43.2042C52.1566 43.2042 52.0665 43.1851 51.9817 43.147C51.8976 43.1084 51.8242 43.0558 51.7616 42.9892C51.6996 42.9227 51.6507 42.8442 51.6149 42.7537C51.5791 42.6633 51.5612 42.5652 51.5612 42.4594C51.5612 42.3468 51.5791 42.245 51.6149 42.154C51.6507 42.0624 51.6996 41.984 51.7616 41.9185C51.8242 41.8526 51.8976 41.8022 51.9817 41.7675C52.0665 41.7323 52.1566 41.7147 52.2522 41.7147V41.7147ZM52.2522 41.0083C52.0594 41.0083 51.8779 41.045 51.7079 41.1183C51.5384 41.1917 51.39 41.2929 51.2626 41.422C51.1357 41.5506 51.0356 41.7036 50.9623 41.881C50.8889 42.0585 50.8522 42.2513 50.8522 42.4594C50.8522 42.6642 50.8889 42.855 50.9623 43.0319C51.0356 43.2082 51.1357 43.3609 51.2626 43.49C51.39 43.6185 51.5384 43.72 51.7079 43.7945C51.8779 43.8685 52.0594 43.9054 52.2522 43.9054C52.4467 43.9054 52.6287 43.8685 52.7982 43.7945C52.9682 43.72 53.1164 43.6185 53.2426 43.49C53.3689 43.3609 53.4687 43.2082 53.5421 43.0319C53.6154 42.855 53.6521 42.6642 53.6521 42.4594C53.6521 42.241 53.6154 42.0428 53.5421 41.8648C53.4687 41.6862 53.3689 41.5335 53.2426 41.4067C53.1164 41.2793 52.9682 41.1812 52.7982 41.1123C52.6287 41.043 52.4467 41.0083 52.2522 41.0083V41.0083Z" fill="white"/>
<path fill-rule="evenodd" clip-rule="evenodd" d="M55.8736 39.9026C55.807 39.9026 55.745 39.9151 55.6876 39.9402C55.6307 39.9646 55.5809 39.9979 55.5383 40.04C55.4956 40.0815 55.4618 40.131 55.4368 40.1884C55.4123 40.2453 55.4001 40.3053 55.4001 40.3684C55.4001 40.4333 55.4123 40.4938 55.4368 40.5501C55.4618 40.6065 55.4956 40.6556 55.5383 40.6977C55.5809 40.7393 55.6307 40.7725 55.6876 40.7976C55.745 40.822 55.807 40.8342 55.8736 40.8342C55.9367 40.8342 55.9967 40.822 56.0536 40.7976C56.111 40.7725 56.1605 40.7393 56.202 40.6977C56.2441 40.6556 56.2774 40.6065 56.3018 40.5501C56.3268 40.4938 56.3393 40.4333 56.3393 40.3684C56.3393 40.3053 56.3268 40.2453 56.3018 40.1884C56.2774 40.131 56.2441 40.0815 56.202 40.04C56.1605 39.9979 56.111 39.9646 56.0536 39.9402C55.9967 39.9151 55.9367 39.9026 55.8736 39.9026ZM55.5101 41.1132V43.5036C55.5101 43.5958 55.4931 43.6836 55.4589 43.7672C55.4248 43.8509 55.3782 43.9245 55.319 43.9882C55.2605 44.0525 55.1911 44.1037 55.1109 44.1418C55.0307 44.1804 54.9437 44.1998 54.8498 44.1998L54.4634 44.1947V44.8985H54.8191C54.9471 44.8985 55.0705 44.8817 55.1894 44.8481C55.3077 44.8152 55.4183 44.7682 55.5212 44.7074C55.6247 44.6471 55.7191 44.5746 55.8045 44.4898C55.8898 44.4057 55.9631 44.3118 56.0246 44.2083C56.086 44.1054 56.1332 43.9942 56.1662 43.8747C56.1997 43.7553 56.2174 43.6316 56.2191 43.5036H56.2242V41.1132H55.5101Z" fill="white"/>
<path fill-rule="evenodd" clip-rule="evenodd" d="M58.4252 39.8745L57.6651 40.5834L57.9543 40.9648L58.8449 40.4094L58.4252 39.8745V39.8745ZM56.7156 41.1132V42.6283C56.7156 42.8246 56.7474 43.0017 56.8111 43.1598C56.8754 43.3174 56.9633 43.4513 57.0747 43.5616C57.1868 43.6714 57.317 43.7562 57.4655 43.8159C57.6139 43.8756 57.7726 43.9054 57.9415 43.9054C58.0183 43.9054 58.0936 43.8955 58.1676 43.8756C58.2421 43.8563 58.3143 43.8301 58.3842 43.7971C58.4542 43.7635 58.521 43.7243 58.5847 43.6794C58.649 43.6339 58.7093 43.5855 58.7656 43.5343L58.9959 43.8543H59.1648V41.1132H58.4661V42.6283C58.4661 42.7017 58.4525 42.7731 58.4252 42.8425C58.3979 42.9113 58.3604 42.973 58.3126 43.0276C58.2648 43.0822 58.2088 43.1263 58.1445 43.1598C58.0808 43.1928 58.0131 43.2093 57.9415 43.2093C57.8681 43.2093 57.7993 43.1965 57.735 43.1709C57.6713 43.1453 57.6156 43.1078 57.5678 43.0583C57.5201 43.0088 57.4819 42.948 57.4535 42.8757C57.4256 42.8029 57.4117 42.7205 57.4117 42.6283V41.1132H56.7156Z" fill="white"/>
<path fill-rule="evenodd" clip-rule="evenodd" d="M60.9257 41.0595C60.7704 41.0595 60.6214 41.0873 60.4786 41.1431C60.3365 41.1982 60.2091 41.277 60.0965 41.3794L59.8661 41.1132H59.6972V43.8543H60.3959V42.2879C60.3959 42.2163 60.4095 42.1486 60.4368 42.0849C60.4641 42.0206 60.5017 41.9646 60.5494 41.9168C60.5972 41.8691 60.6535 41.8315 60.7184 41.8042C60.7832 41.7769 60.8523 41.7633 60.9257 41.7633C60.9973 41.7633 61.0647 41.7769 61.1279 41.8042C61.191 41.8315 61.2464 41.8691 61.2942 41.9168C61.342 41.9646 61.3795 42.0206 61.4068 42.0849C61.4341 42.1486 61.4478 42.2163 61.4478 42.2879V43.8543H62.1465V42.2879C62.1465 42.119 62.1143 41.9601 62.0501 41.8111C61.9864 41.6615 61.8991 41.5309 61.7882 41.4195C61.6772 41.3074 61.5476 41.2196 61.3991 41.1559C61.2507 41.0916 61.0929 41.0595 60.9257 41.0595V41.0595Z" fill="white"/>
<path fill-rule="evenodd" clip-rule="evenodd" d="M62.9961 39.9026C62.9313 39.9026 62.8702 39.9151 62.8127 39.9402C62.7558 39.9646 62.7064 39.9979 62.6643 40.04C62.6227 40.0815 62.5895 40.131 62.5645 40.1884C62.54 40.2453 62.5278 40.3053 62.5278 40.3684C62.5278 40.4333 62.54 40.4938 62.5645 40.5501C62.5895 40.6065 62.6227 40.6556 62.6643 40.6977C62.7064 40.7393 62.7558 40.7725 62.8127 40.7976C62.8702 40.822 62.9313 40.8342 62.9961 40.8342C63.061 40.8342 63.1218 40.822 63.1787 40.7976C63.2361 40.7725 63.2862 40.7393 63.3288 40.6977C63.3715 40.6556 63.405 40.6065 63.4295 40.5501C63.4545 40.4938 63.467 40.4333 63.467 40.3684C63.467 40.3053 63.4545 40.2453 63.4295 40.1884C63.405 40.131 63.3715 40.0815 63.3288 40.04C63.2862 39.9979 63.2361 39.9646 63.1787 39.9402C63.1218 39.9151 63.061 39.9026 62.9961 39.9026ZM62.6429 41.1132V43.8543H63.3468V41.1132H62.6429Z" fill="white"/>
<path fill-rule="evenodd" clip-rule="evenodd" d="M65.128 41.7147C65.2236 41.7147 65.3134 41.7323 65.3976 41.7676C65.4823 41.8023 65.5563 41.8526 65.6194 41.9186C65.6825 41.984 65.7323 42.0625 65.7687 42.154C65.8057 42.245 65.8242 42.3468 65.8242 42.4594C65.8242 42.5703 65.8057 42.6719 65.7687 42.764C65.7323 42.8561 65.6825 42.9346 65.6194 42.9995C65.5563 43.0643 65.4823 43.1146 65.3976 43.1504C65.3134 43.1863 65.2236 43.2042 65.128 43.2042C65.0325 43.2042 64.9423 43.1851 64.8576 43.147C64.7734 43.1084 64.7001 43.0558 64.6375 42.9892C64.5755 42.9227 64.5266 42.8442 64.4908 42.7538C64.4549 42.6633 64.437 42.5652 64.437 42.4594C64.437 42.3468 64.4549 42.245 64.4908 42.154C64.5266 42.0625 64.5755 41.984 64.6375 41.9186C64.7001 41.8526 64.7734 41.8023 64.8576 41.7676C64.9423 41.7323 65.0325 41.7147 65.128 41.7147V41.7147ZM65.128 41.0083C64.9352 41.0083 64.7538 41.045 64.5837 41.1183C64.4143 41.1917 64.2658 41.293 64.1384 41.4221C64.0116 41.5506 63.9115 41.7036 63.8381 41.881C63.7648 42.0585 63.7281 42.2513 63.7281 42.4594C63.7281 42.6642 63.7648 42.855 63.8381 43.0319C63.9115 43.2082 64.0116 43.3609 64.1384 43.49C64.2658 43.6185 64.4143 43.72 64.5837 43.7945C64.7538 43.8685 64.9352 43.9054 65.128 43.9054C65.3225 43.9054 65.5045 43.8685 65.674 43.7945C65.8441 43.72 65.9922 43.6185 66.1185 43.49C66.2447 43.3609 66.3445 43.2082 66.4179 43.0319C66.4913 42.855 66.528 42.6642 66.528 42.4594C66.528 42.241 66.4913 42.0428 66.4179 41.8648C66.3445 41.6862 66.2447 41.5335 66.1185 41.4067C65.9922 41.2793 65.8441 41.1812 65.674 41.1124C65.5045 41.043 65.3225 41.0083 65.128 41.0083V41.0083Z" fill="white"/>
<path fill-rule="evenodd" clip-rule="evenodd" d="M66.9144 41.1132V43.8543H67.6131V42.3443C67.6131 42.2709 67.6268 42.2018 67.6541 42.1369C67.6814 42.0721 67.7189 42.0158 67.7667 41.968C67.8145 41.9203 67.8708 41.8827 67.9356 41.8554C68.0004 41.8281 68.0695 41.8145 68.1429 41.8145H68.7597V41.1183H68.1429C67.9893 41.1183 67.8409 41.1462 67.6976 41.2019C67.5543 41.2571 67.4263 41.3359 67.3137 41.4382L67.0833 41.1132H66.9144Z" fill="white"/>
<path fill-rule="evenodd" clip-rule="evenodd" d="M53.1208 22.5167C53.1208 17.4132 57.2569 13.276 62.359 13.276C67.4611 13.276 71.5972 17.4132 71.5972 22.5167C71.2658 17.6573 67.2284 13.8849 62.359 13.8849C57.4897 13.8849 53.4522 17.6573 53.1208 22.5167Z" fill="white"/>
</g>
<defs>
<clipPath id="clip0_1_46">
<rect width="76" height="57" fill="white" transform="translate(0.5 0.5)"/>
</clipPath>
</defs>
</svg>
