<svg width="40" height="40" viewBox="0 0 40 40" fill="none" xmlns="http://www.w3.org/2000/svg">
<g clip-path="url(#clip0_215_555)">
<path d="M35.625 5.24998C35.1952 4.97194 34.7037 4.80372 34.1937 4.76013C33.6837 4.71654 33.1707 4.7989 32.7 4.99998L17.275 11.075C16.9098 11.2236 16.5193 11.3 16.125 11.3H6.25C5.4212 11.3 4.62634 11.6292 4.04029 12.2153C3.45424 12.8013 3.125 13.5962 3.125 14.425V14.675H0V22.175H3.125V22.5C3.14458 23.3157 3.48245 24.0914 4.06639 24.6614C4.65033 25.2313 5.43403 25.5502 6.25 25.55L10 33.5C10.2539 34.0353 10.6537 34.4882 11.1534 34.8066C11.6531 35.125 12.2325 35.296 12.825 35.3H14.4C15.2245 35.2934 16.0129 34.9612 16.5936 34.3759C17.1742 33.7906 17.5 32.9995 17.5 32.175V25.85L32.7 31.925C33.0739 32.0738 33.4726 32.1501 33.875 32.15C34.4993 32.1399 35.1072 31.9489 35.625 31.6C36.0362 31.3223 36.3754 30.9508 36.6145 30.5161C36.8536 30.0813 36.9857 29.5959 37 29.1V7.82498C36.9977 7.31627 36.8713 6.81581 36.6316 6.36706C36.392 5.91832 36.0465 5.53486 35.625 5.24998ZM14.375 14.425V22.5H6.25V14.425H14.375ZM14.375 32.175H12.8L9.725 25.55H14.375V32.175ZM18.425 22.875C18.1282 22.7233 17.8187 22.5978 17.5 22.5V14.25C17.8156 14.1849 18.1251 14.0929 18.425 13.975L33.875 7.82498V29.025L18.425 22.875ZM37.075 15.3V21.55C37.9038 21.55 38.6987 21.2207 39.2847 20.6347C39.8708 20.0486 40.2 19.2538 40.2 18.425C40.2 17.5962 39.8708 16.8013 39.2847 16.2153C38.6987 15.6292 37.9038 15.3 37.075 15.3Z" fill="#005EFF"/>
</g>
<defs>
<clipPath id="clip0_215_555">
<rect width="40" height="40" fill="white"/>
</clipPath>
</defs>
</svg>
