<svg width="44" height="36" viewBox="0 0 44 36" fill="none" xmlns="http://www.w3.org/2000/svg">
<path d="M43.3306 4.75696C41.765 5.45071 40.0831 5.91946 38.315 6.13133C40.1394 5.03969 41.5043 3.32158 42.155 1.29758C40.441 2.31569 38.565 3.03232 36.6088 3.41633C35.2932 2.01171 33.5508 1.08069 31.6519 0.767847C29.753 0.454999 27.804 0.777817 26.1073 1.68618C24.4107 2.59455 23.0615 4.03764 22.2691 5.7914C21.4766 7.54517 21.2854 9.51149 21.725 11.3851C18.2519 11.2107 14.8543 10.308 11.7527 8.73553C8.65106 7.16307 5.91472 4.95601 3.72127 2.25758C2.97127 3.55133 2.54002 5.05133 2.54002 6.64883C2.53919 8.08695 2.89333 9.50304 3.57104 10.7715C4.24876 12.0399 5.22907 13.1214 6.42502 13.9201C5.03804 13.876 3.68166 13.5012 2.46877 12.827V12.9395C2.46863 14.9565 3.16633 16.9114 4.44349 18.4726C5.72065 20.0337 7.49859 21.105 9.47565 21.5045C8.18899 21.8527 6.84003 21.904 5.53065 21.6545C6.08845 23.39 7.17501 24.9076 8.63821 25.9949C10.1014 27.0823 11.868 27.6848 13.6906 27.7182C10.5966 30.1471 6.77544 31.4646 2.8419 31.4588C2.14511 31.459 1.44892 31.4183 0.756897 31.337C4.74966 33.9042 9.39754 35.2666 14.1444 35.2613C30.2131 35.2613 38.9975 21.9526 38.9975 10.4101C38.9975 10.0351 38.9881 9.65633 38.9713 9.28133C40.6799 8.04566 42.1549 6.51551 43.3269 4.76258L43.3306 4.75696Z" fill="#C4C4C4"/>
</svg>
