<svg width="45" height="46" viewBox="0 0 45 46" fill="none" xmlns="http://www.w3.org/2000/svg">
<g clip-path="url(#clip0_215_606)">
<path fill-rule="evenodd" clip-rule="evenodd" d="M0 23.1256C0 34.3119 8.12438 43.6138 18.75 45.5V29.2494H13.125V23H18.75V17.9994C18.75 12.3744 22.3744 9.25062 27.5006 9.25062C29.1244 9.25062 30.8756 9.5 32.4994 9.74938V15.5H29.625C26.8744 15.5 26.25 16.8744 26.25 18.6256V23H32.25L31.2506 29.2494H26.25V45.5C36.8756 43.6138 45 34.3138 45 23.1256C45 10.6813 34.875 0.5 22.5 0.5C10.125 0.5 0 10.6813 0 23.1256Z" fill="#C4C4C4"/>
</g>
<defs>
<clipPath id="clip0_215_606">
<rect width="45" height="45" fill="white" transform="translate(0 0.5)"/>
</clipPath>
</defs>
</svg>
