<svg width="46" height="46" viewBox="0 0 46 46" fill="none" xmlns="http://www.w3.org/2000/svg">
<path fill-rule="evenodd" clip-rule="evenodd" d="M13.5521 0.220752C15.9958 0.108252 16.775 0.083252 23 0.083252C29.225 0.083252 30.0041 0.110335 32.4458 0.220752C34.8875 0.331169 36.5541 0.720752 38.0125 1.28534C39.5396 1.86242 40.925 2.7645 42.0708 3.93117C43.2375 5.07492 44.1375 6.45825 44.7125 7.98742C45.2791 9.44575 45.6666 11.1124 45.7791 13.5499C45.8916 15.9978 45.9166 16.777 45.9166 22.9999C45.9166 29.2249 45.8896 30.0041 45.7791 32.4478C45.6687 34.8853 45.2791 36.552 44.7125 38.0103C44.1375 39.5397 43.236 40.9253 42.0708 42.0707C40.925 43.2374 39.5396 44.1374 38.0125 44.7124C36.5541 45.2791 34.8875 45.6666 32.45 45.7791C30.0041 45.8916 29.225 45.9166 23 45.9166C16.775 45.9166 15.9958 45.8895 13.5521 45.7791C11.1146 45.6687 9.4479 45.2791 7.98956 44.7124C6.46023 44.1373 5.07461 43.2359 3.92915 42.0707C2.76327 40.9263 1.86105 39.5413 1.2854 38.0124C0.720813 36.5541 0.333313 34.8874 0.220813 32.4499C0.108313 30.002 0.083313 29.2228 0.083313 22.9999C0.083313 16.7749 0.110396 15.9958 0.220813 13.5541C0.33123 11.1124 0.720813 9.44575 1.2854 7.98742C1.8619 6.45842 2.76481 5.07349 3.93123 3.92909C5.07506 2.76346 6.4593 1.86126 7.98748 1.28534C9.44581 0.720752 11.1125 0.333252 13.55 0.220752H13.5521ZM32.2604 4.34575C29.8437 4.23534 29.1187 4.21242 23 4.21242C16.8812 4.21242 16.1562 4.23534 13.7396 4.34575C11.5041 4.44783 10.2916 4.82075 9.48331 5.13533C8.41456 5.552 7.64998 6.04575 6.8479 6.84784C6.08757 7.58753 5.50244 8.48801 5.1354 9.48325C4.82081 10.2916 4.4479 11.5041 4.34581 13.7395C4.2354 16.1562 4.21248 16.8812 4.21248 22.9999C4.21248 29.1187 4.2354 29.8437 4.34581 32.2603C4.4479 34.4958 4.82081 35.7083 5.1354 36.5166C5.50206 37.5103 6.08748 38.4124 6.8479 39.152C7.58748 39.9124 8.48956 40.4978 9.48331 40.8645C10.2916 41.1791 11.5041 41.552 13.7396 41.6541C16.1562 41.7645 16.8791 41.7874 23 41.7874C29.1208 41.7874 29.8437 41.7645 32.2604 41.6541C34.4958 41.552 35.7083 41.1791 36.5166 40.8645C37.5854 40.4478 38.35 39.9541 39.1521 39.152C39.9125 38.4124 40.4979 37.5103 40.8646 36.5166C41.1791 35.7083 41.5521 34.4958 41.6541 32.2603C41.7646 29.8437 41.7875 29.1187 41.7875 22.9999C41.7875 16.8812 41.7646 16.1562 41.6541 13.7395C41.5521 11.5041 41.1791 10.2916 40.8646 9.48325C40.4479 8.4145 39.9541 7.64992 39.1521 6.84784C38.4123 6.08757 37.5119 5.50244 36.5166 5.13533C35.7083 4.82075 34.4958 4.44783 32.2604 4.34575ZM20.0729 30.0645C21.7076 30.745 23.5279 30.8368 25.2227 30.3243C26.9176 29.8118 28.382 28.7268 29.3658 27.2546C30.3496 25.7824 30.7918 24.0142 30.6167 22.2522C30.4417 20.4902 29.6604 18.8436 28.4062 17.5937C27.6067 16.7947 26.64 16.1829 25.5757 15.8023C24.5113 15.4218 23.3759 15.2819 22.251 15.3929C21.1261 15.5038 20.0399 15.8628 19.0704 16.4439C18.1009 17.0251 17.2724 17.814 16.6444 18.7538C16.0164 19.6936 15.6045 20.7609 15.4386 21.879C15.2726 22.9971 15.3565 24.138 15.6844 25.2197C16.0123 26.3015 16.576 27.297 17.3348 28.1348C18.0936 28.9725 19.0288 29.6316 20.0729 30.0645ZM14.6708 14.6708C15.7646 13.5769 17.0631 12.7093 18.4923 12.1173C19.9214 11.5254 21.4531 11.2207 23 11.2207C24.5468 11.2207 26.0786 11.5254 27.5077 12.1173C28.9368 12.7093 30.2353 13.5769 31.3291 14.6708C32.4229 15.7646 33.2906 17.0631 33.8826 18.4922C34.4745 19.9213 34.7792 21.453 34.7792 22.9999C34.7792 24.5468 34.4745 26.0785 33.8826 27.5076C33.2906 28.9368 32.4229 30.2353 31.3291 31.3291C29.1201 33.5381 26.124 34.7791 23 34.7791C19.8759 34.7791 16.8798 33.5381 14.6708 31.3291C12.4618 29.1201 11.2208 26.124 11.2208 22.9999C11.2208 19.8759 12.4618 16.8798 14.6708 14.6708ZM37.3916 12.9749C37.6627 12.7192 37.8797 12.4118 38.0298 12.0707C38.1799 11.7296 38.26 11.3619 38.2654 10.9894C38.2709 10.6168 38.2015 10.2469 38.0614 9.90161C37.9213 9.55632 37.7134 9.24265 37.4499 8.97917C37.1864 8.71568 36.8727 8.50775 36.5275 8.36766C36.1822 8.22758 35.8123 8.1582 35.4397 8.16363C35.0671 8.16906 34.6994 8.2492 34.3584 8.39929C34.0173 8.54937 33.7098 8.76637 33.4541 9.03742C32.9569 9.56456 32.6846 10.2648 32.6952 10.9894C32.7058 11.714 32.9983 12.4059 33.5107 12.9183C34.0231 13.4308 34.7151 13.7233 35.4397 13.7339C36.1643 13.7444 36.8645 13.4722 37.3916 12.9749Z" fill="#C4C4C4"/>
</svg>
