<svg width="161" height="120" viewBox="0 0 161 120" fill="none" xmlns="http://www.w3.org/2000/svg">
<path fill-rule="evenodd" clip-rule="evenodd" d="M27.2565 51.5729C28.2605 51.5729 29.204 51.7718 30.087 52.1696C30.9771 52.5603 31.7533 53.1073 32.4155 53.8106C33.0848 54.5067 33.6153 55.345 34.007 56.3253C34.4057 57.3056 34.6051 58.3676 34.6051 59.5113C34.6051 60.655 34.4057 61.7099 34.007 62.676C33.6153 63.642 33.0848 64.4803 32.4155 65.1906C31.7461 65.8939 30.9664 66.448 30.0763 66.8529C29.1934 67.2507 28.2534 67.4496 27.2565 67.4496C26.2596 67.4496 25.3161 67.2507 24.426 66.8529C23.5431 66.448 22.7669 65.8939 22.0975 65.1906C21.4282 64.4874 20.9013 63.6527 20.5167 62.6866C20.1322 61.7205 19.94 60.6621 19.94 59.5113C19.94 58.4954 20.1322 57.508 20.5167 56.549C20.9013 55.5829 21.4318 54.7305 22.1082 53.9917C22.7847 53.2529 23.5644 52.6669 24.4474 52.2336C25.3375 51.7931 26.2739 51.5729 27.2565 51.5729ZM8.36163 27.7153V59.5113C8.36163 62.3385 8.85296 64.9385 9.83563 67.3111C10.8254 69.6766 12.1783 71.7225 13.8944 73.4487C15.6177 75.1748 17.6257 76.521 19.9186 77.4871C22.2115 78.4532 24.6574 78.9362 27.2565 78.9362C29.8698 78.9362 32.3229 78.4674 34.6158 77.5297C36.9158 76.5849 38.9203 75.253 40.6293 73.5339C42.3382 71.8148 43.6841 69.7654 44.6667 67.3857C45.6565 64.9988 46.1514 62.374 46.1514 59.5113C46.1514 56.7053 45.6565 54.1196 44.6667 51.7541C43.6841 49.3814 42.3382 47.3214 40.6293 45.5739C38.9274 43.8264 36.9265 42.466 34.6265 41.4928C32.3336 40.5125 29.8769 40.0224 27.2565 40.0224C26.3807 40.0224 25.4835 40.1112 24.5649 40.2888C23.6534 40.4592 22.7633 40.7114 21.8946 41.0453C21.0259 41.3792 20.2034 41.816 19.4273 42.3559C19.2423 42.4846 19.0915 42.6122 18.9749 42.7389L19.8759 27.7153H8.36163Z" fill="#005EFF"/>
<path fill-rule="evenodd" clip-rule="evenodd" d="M47.807 41.333V61.6211C47.807 64.2494 48.2414 66.6363 49.1101 68.7816C49.9788 70.9198 51.1787 72.7419 52.7096 74.2478C54.2406 75.7467 56.0172 76.9046 58.0395 77.7215C60.0689 78.5313 62.2301 78.9362 64.5229 78.9362C65.1527 78.9362 65.7673 78.8737 66.3668 78.7487C65.8749 79.0775 65.3493 79.3389 64.79 79.533C64.1349 79.7674 63.462 79.8846 62.7712 79.8846L56.5228 79.7993V91.3179L62.3654 91.4032C64.9787 91.4032 67.4246 90.9095 69.7033 89.9221C71.9819 88.9347 73.9793 87.5921 75.6954 85.8943C77.4115 84.1965 78.7644 82.2075 79.7542 79.9272C80.744 77.654 81.2496 75.221 81.2709 72.6282V41.333H69.7246V61.6211C69.7246 62.367 69.5822 63.0951 69.2974 63.8054C69.0197 64.5087 68.6352 65.1409 68.1438 65.7021C67.6596 66.2633 67.1042 66.7073 66.4776 67.0341C65.851 67.3537 65.1994 67.5136 64.5229 67.5136C63.7681 67.5136 63.0739 67.3963 62.4401 67.1619C61.8135 66.9275 61.2688 66.5759 60.8059 66.107C60.3502 65.6382 59.9764 65.0344 59.6844 64.2956C59.3996 63.5568 59.2572 62.6653 59.2572 61.6211V41.333H47.807Z" fill="#005EFF"/>
<path fill-rule="evenodd" clip-rule="evenodd" d="M131.013 51.5729C131.389 51.5729 131.733 51.5906 132.046 51.6258L124.084 62.3849C124.022 62.1416 123.964 61.8798 123.91 61.5997C123.846 61.2232 123.8 60.8539 123.771 60.4916C123.743 60.1222 123.728 59.7954 123.728 59.5113C123.728 58.2539 123.921 57.1386 124.305 56.1654C124.69 55.1851 125.206 54.3576 125.854 53.6827C126.509 53.0079 127.278 52.4893 128.161 52.127C129.044 51.7576 129.995 51.5729 131.013 51.5729ZM87.0601 27.7153V41.3969H82.7983V52.8196H87.0601V61.6211C87.0601 63.9155 87.4945 66.0751 88.3632 68.0996C89.2391 70.117 90.4389 71.8859 91.9627 73.406C93.4866 74.9262 95.2596 76.1232 97.2819 76.9969C99.3113 77.8636 101.476 78.2969 103.776 78.2969H111.776V66.8742H103.776C103.05 66.8742 102.363 66.7357 101.715 66.4587C101.067 66.1745 100.504 65.798 100.027 65.3292C99.557 64.8532 99.1867 64.2991 98.9161 63.6669C98.6456 63.0347 98.5103 62.3527 98.5103 61.6211V52.8196H111.776V41.3969H98.5103V27.7153H87.0601ZM131.013 40.0224C128.421 40.0224 125.979 40.4948 123.686 41.4395C121.393 42.3772 119.385 43.6985 117.661 45.4034C115.938 47.1083 114.582 49.1648 113.592 51.5729C112.609 53.9811 112.118 56.6272 112.118 59.5113C112.118 62.3385 112.609 64.9385 113.592 67.3111C114.582 69.6766 115.935 71.7225 117.651 73.4487C119.374 75.1748 121.382 76.521 123.675 77.4871C125.968 78.4532 128.414 78.9362 131.013 78.9362C132.551 78.9362 134.05 78.7586 135.51 78.4035C136.977 78.0483 138.372 77.5262 139.697 76.8371C141.028 76.1481 142.264 75.3098 143.403 74.3224C144.542 73.3279 145.767 71.9001 147.077 70.0389L138.458 61.3866C137.632 63.2478 136.991 64.4412 136.535 64.9669C136.079 65.4926 135.559 65.9401 134.976 66.3095C134.392 66.6718 133.765 66.9524 133.096 67.1513C132.426 67.3502 131.732 67.4496 131.013 67.4496C130.813 67.4496 130.618 67.4449 130.428 67.4353L147.088 48.8984C145.813 47.0941 144.599 45.6946 143.446 44.7001C142.299 43.6985 141.064 42.8532 139.739 42.1641C138.415 41.4751 137.016 40.9458 135.542 40.5765C134.068 40.2071 132.558 40.0224 131.013 40.0224Z" fill="#005EFF"/>
<path fill-rule="evenodd" clip-rule="evenodd" d="M116.173 35.8163C118.561 41.0489 124.035 44.5338 129.982 44.6075C135.928 44.6812 141.142 41.3288 143.135 36.1505L141.039 35.3539C139.379 39.6606 135.008 42.4393 129.998 42.371C124.989 42.3027 120.351 39.4011 118.285 35.0437L116.173 35.8163Z" fill="#783F04"/>
<path fill-rule="evenodd" clip-rule="evenodd" d="M111.047 46.3509C111.047 35.6067 119.775 26.8969 130.543 26.8969C141.31 26.8969 150.038 35.6067 150.038 46.3509C145.436 40.2276 138.213 36.6239 130.543 36.6239C122.872 36.6239 115.649 40.2276 111.047 46.3509Z" fill="#B45F06"/>
<path fill-rule="evenodd" clip-rule="evenodd" d="M127.78 30.2344L129.622 30.2344L130.543 28.6439L131.464 30.2344L133.306 30.2344L132.385 31.825L133.306 33.4155L131.464 33.4155L130.543 35.0061L129.622 33.4155L127.78 33.4155L128.701 31.825L127.78 30.2344Z" fill="white"/>
<path fill-rule="evenodd" clip-rule="evenodd" d="M127.78 30.2344L129.622 30.2344L130.543 28.6439L131.464 30.2344L133.306 30.2344L132.385 31.825L133.306 33.4155L131.464 33.4155L130.543 35.0061L129.622 33.4155L127.78 33.4155L128.701 31.825L127.78 30.2344Z" stroke="#783F04" stroke-miterlimit="10" stroke-linejoin="round"/>
<path d="M111.047 46.3509C109.62 46.3509 108.906 47.5386 108.192 48.7262C107.479 49.9139 106.765 51.1015 105.338 51.1015" stroke="#B45F06" stroke-width="2" stroke-miterlimit="10" stroke-linejoin="round"/>
<path d="M111.047 46.3509C109.784 46.3509 108.521 49.2538 108.521 52.1567" stroke="#B45F06" stroke-width="2" stroke-miterlimit="10" stroke-linejoin="round"/>
<path d="M150.038 46.3509C151.683 46.3509 153.327 48.7262 153.327 51.1015" stroke="#B45F06" stroke-width="2" stroke-miterlimit="10" stroke-linejoin="round"/>
<path d="M150.038 46.3509C151.606 46.3509 152.39 47.326 153.174 48.301C153.958 49.2761 154.742 50.2512 156.31 50.2512" stroke="#B45F06" stroke-width="2" stroke-miterlimit="10" stroke-linejoin="round"/>
<path fill-rule="evenodd" clip-rule="evenodd" d="M119.353 33.9141C119.353 32.837 120.229 31.9639 121.308 31.9639C121.827 31.9639 122.324 32.1694 122.69 32.5351C123.057 32.9008 123.263 33.3969 123.263 33.9141C123.263 34.9911 122.388 35.8642 121.308 35.8642C120.229 35.8642 119.353 34.9911 119.353 33.9141Z" fill="white"/>
<path d="M122.69 32.5351L119.926 35.293M119.926 32.5351L122.69 35.293L119.926 32.5351Z" stroke="#783F04" stroke-miterlimit="10" stroke-linejoin="round"/>
<path fill-rule="evenodd" clip-rule="evenodd" d="M119.353 33.9141C119.353 32.837 120.229 31.9639 121.308 31.9639C121.827 31.9639 122.324 32.1694 122.69 32.5351C123.057 32.9008 123.263 33.3969 123.263 33.9141C123.263 34.9911 122.388 35.8642 121.308 35.8642C120.229 35.8642 119.353 34.9911 119.353 33.9141V33.9141Z" stroke="#783F04" stroke-miterlimit="10" stroke-linejoin="round"/>
<path fill-rule="evenodd" clip-rule="evenodd" d="M137.824 33.9141C137.824 32.837 138.699 31.9639 139.779 31.9639C140.297 31.9639 140.795 32.1694 141.161 32.5351C141.528 32.9008 141.734 33.3969 141.734 33.9141C141.734 34.9911 140.859 35.8642 139.779 35.8642C138.699 35.8642 137.824 34.9911 137.824 33.9141Z" fill="white"/>
<path d="M141.161 32.5351L138.397 35.293M138.397 32.5351L141.161 35.293L138.397 32.5351Z" stroke="#783F04" stroke-miterlimit="10" stroke-linejoin="round"/>
<path fill-rule="evenodd" clip-rule="evenodd" d="M137.824 33.9141C137.824 32.837 138.699 31.9639 139.779 31.9639C140.297 31.9639 140.795 32.1694 141.161 32.5351C141.528 32.9008 141.734 33.3969 141.734 33.9141C141.734 34.9911 140.859 35.8642 139.779 35.8642C138.699 35.8642 137.824 34.9911 137.824 33.9141V33.9141Z" stroke="#783F04" stroke-miterlimit="10" stroke-linejoin="round"/>
<path fill-rule="evenodd" clip-rule="evenodd" d="M82.7167 85.5123C82.4611 85.5123 82.2216 85.5602 81.9984 85.656C81.7751 85.7505 81.5807 85.8805 81.4151 86.0457C81.2494 86.2109 81.1186 86.4049 81.0226 86.6276C80.9278 86.8503 80.8804 87.0892 80.8804 87.3442C80.8804 87.5993 80.9278 87.8381 81.0226 88.0608C81.1186 88.2835 81.2494 88.4787 81.4151 88.6463C81.5807 88.8128 81.7751 88.9445 81.9984 89.0415C82.2216 89.1385 82.4611 89.1869 82.7167 89.1869H84.2506C84.3514 89.1869 84.4378 89.2031 84.5098 89.2354C84.5818 89.2678 84.6178 89.336 84.6178 89.4402C84.6178 89.5408 84.5818 89.627 84.5098 89.6988C84.4378 89.7707 84.3514 89.8066 84.2506 89.8066H80.8804V91.2721H84.2506C84.5026 91.2721 84.7403 91.2248 84.9635 91.1303C85.1867 91.0345 85.3812 90.9034 85.5468 90.7369C85.7124 90.5693 85.8439 90.3753 85.9411 90.155C86.0383 89.9335 86.0869 89.6952 86.0869 89.4402C86.0869 89.1887 86.0383 88.9571 85.9411 88.7451C85.8439 88.5332 85.7124 88.3518 85.5468 88.2009C85.3812 88.0501 85.1867 87.9327 84.9635 87.8489C84.7403 87.7639 84.5026 87.7214 84.2506 87.7214H82.7167C82.6159 87.7214 82.5295 87.6849 82.4575 87.6118C82.3854 87.5376 82.3494 87.4484 82.3494 87.3442C82.3494 87.2436 82.3854 87.1574 82.4575 87.0856C82.5295 87.0138 82.6159 86.9778 82.7167 86.9778H85.7034V85.5123H82.7167Z" fill="#B45F06"/>
<path fill-rule="evenodd" clip-rule="evenodd" d="M89.5165 86.7677C89.5885 86.7677 89.6575 86.7713 89.7236 86.7785C89.7908 86.7856 89.8586 86.8018 89.927 86.827L88.2095 89.1007C88.1807 89.0505 88.1573 88.993 88.1393 88.9283C88.1213 88.8637 88.1057 88.7966 88.0925 88.7272C88.0805 88.6565 88.0715 88.5871 88.0655 88.5188C88.0607 88.4506 88.0583 88.3895 88.0583 88.3356C88.0583 88.095 88.0961 87.8788 88.1717 87.6873C88.2473 87.4945 88.3505 87.3298 88.4813 87.1934C88.6134 87.0568 88.7682 86.9521 88.9458 86.879C89.1247 86.8048 89.3149 86.7677 89.5165 86.7677ZM89.5165 85.2806C89.1097 85.2806 88.7268 85.3542 88.3679 85.5015C88.0103 85.6488 87.697 85.8553 87.4282 86.1211C87.1605 86.3869 86.9493 86.7084 86.7944 87.0856C86.6396 87.4628 86.5622 87.8794 86.5622 88.3356C86.5622 88.781 86.6396 89.1899 86.7944 89.5623C86.9493 89.9335 87.1605 90.2538 87.4282 90.5232C87.697 90.7926 88.0103 91.0027 88.3679 91.1536C88.7268 91.3045 89.1097 91.3799 89.5165 91.3799C89.7578 91.3799 89.9924 91.3518 90.2205 91.2955C90.4497 91.2404 90.6675 91.159 90.874 91.0512C91.0816 90.9435 91.2742 90.8124 91.4519 90.6579C91.6307 90.5034 91.7885 90.3292 91.9254 90.1352L90.8452 89.0522C90.7875 89.1816 90.7125 89.2995 90.6201 89.4061C90.5289 89.5114 90.4245 89.6012 90.3069 89.6755C90.1904 89.7485 90.0656 89.8048 89.9324 89.8443C89.7992 89.8838 89.6605 89.9036 89.5165 89.9036C89.4589 89.9036 89.4013 89.9012 89.3437 89.8964C89.2861 89.8904 89.2285 89.8784 89.1709 89.8605L91.9362 86.536C91.7993 86.342 91.6409 86.1672 91.4609 86.0116C91.2808 85.8547 91.087 85.7224 90.8794 85.6146C90.6729 85.5069 90.4545 85.4243 90.2241 85.3668C89.9936 85.3093 89.7578 85.2806 89.5165 85.2806Z" fill="#B45F06"/>
<path fill-rule="evenodd" clip-rule="evenodd" d="M92.6761 85.5015V91.2721H94.1506V88.0931C94.1506 87.9387 94.1794 87.7932 94.237 87.6567C94.2946 87.5202 94.3738 87.4017 94.4746 87.3011C94.5754 87.2005 94.6942 87.1215 94.8311 87.064C94.9679 87.0065 95.1137 86.9778 95.2685 86.9778H96.5702V85.5122H95.2685C94.9445 85.5122 94.6312 85.5709 94.3288 85.6883C94.0263 85.8044 93.7563 85.9702 93.5186 86.1857L93.0325 85.5015H92.6761Z" fill="#B45F06"/>
<path fill-rule="evenodd" clip-rule="evenodd" d="M98.0014 82.9529C97.8646 82.9529 97.7356 82.9793 97.6144 83.032C97.4943 83.0835 97.3899 83.1535 97.3011 83.2421C97.2135 83.3295 97.1433 83.4337 97.0905 83.5546C97.0389 83.6743 97.0131 83.8007 97.0131 83.9336C97.0131 84.0701 97.0389 84.1976 97.0905 84.3161C97.1433 84.4347 97.2135 84.5382 97.3011 84.6268C97.3899 84.7142 97.4943 84.7843 97.6144 84.837C97.7356 84.8885 97.8646 84.9142 98.0014 84.9142C98.1383 84.9142 98.2667 84.8885 98.3867 84.837C98.5079 84.7843 98.6136 84.7142 98.7036 84.6268C98.7936 84.5382 98.8644 84.4347 98.916 84.3161C98.9688 84.1976 98.9952 84.0701 98.9952 83.9336C98.9952 83.8007 98.9688 83.6743 98.916 83.5546C98.8644 83.4337 98.7936 83.3295 98.7036 83.2421C98.6136 83.1535 98.5079 83.0835 98.3867 83.032C98.2667 82.9793 98.1383 82.9529 98.0014 82.9529ZM97.2561 85.5015V91.2722H98.7414V85.5015H97.2561Z" fill="#B45F06"/>
<path fill-rule="evenodd" clip-rule="evenodd" d="M102.5 86.7677C102.702 86.7677 102.892 86.812 103.069 86.9006C103.248 86.988 103.404 87.1048 103.537 87.2508C103.671 87.3957 103.776 87.5628 103.852 87.7519C103.93 87.9399 103.969 88.1345 103.969 88.3356C103.969 88.5368 103.93 88.732 103.852 88.9212C103.776 89.1091 103.671 89.2762 103.537 89.4222C103.404 89.5671 103.248 89.6839 103.069 89.7725C102.892 89.8599 102.702 89.9036 102.5 89.9036C102.299 89.9036 102.109 89.8623 101.93 89.7797C101.752 89.697 101.597 89.5839 101.465 89.4402C101.334 89.2965 101.231 89.1295 101.156 88.9391C101.08 88.7487 101.042 88.5476 101.042 88.3356C101.042 88.0914 101.08 87.8723 101.156 87.6783C101.231 87.4843 101.334 87.3203 101.465 87.1862C101.597 87.0509 101.752 86.9473 101.93 86.8755C102.109 86.8036 102.299 86.7677 102.5 86.7677ZM103.969 83.2062V85.9002C103.89 85.7853 103.793 85.6883 103.678 85.6093C103.563 85.5302 103.439 85.4668 103.307 85.4189C103.176 85.3698 103.041 85.3345 102.902 85.3129C102.764 85.2914 102.63 85.2806 102.5 85.2806C102.094 85.2806 101.711 85.3578 101.352 85.5123C100.994 85.6667 100.681 85.8805 100.412 86.1535C100.144 86.4265 99.9331 86.7497 99.7783 87.1233C99.6235 87.4969 99.5461 87.901 99.5461 88.3356C99.5461 88.7739 99.6235 89.1792 99.7783 89.5516C99.9331 89.9227 100.144 90.2442 100.412 90.516C100.681 90.7866 100.994 90.9986 101.352 91.1518C101.711 91.3039 102.094 91.3799 102.5 91.3799C102.688 91.3799 102.872 91.3566 103.053 91.3099C103.236 91.2632 103.413 91.1997 103.586 91.1195C103.759 91.0381 103.923 90.9429 104.079 90.8339C104.237 90.7238 104.385 90.6058 104.526 90.4801L105.098 91.2722H105.455V83.2062H103.969Z" fill="#B45F06"/>
<path fill-rule="evenodd" clip-rule="evenodd" d="M110.186 82.5542L108.582 84.0467L109.192 84.8495L111.072 83.6803L110.186 82.5542ZM109.214 86.7677C109.415 86.7677 109.605 86.8048 109.783 86.879C109.962 86.9521 110.118 87.058 110.251 87.1969C110.384 87.3346 110.489 87.4999 110.566 87.6927C110.644 87.8842 110.683 88.0986 110.683 88.3356C110.683 88.5691 110.644 88.7828 110.566 88.9768C110.489 89.1708 110.384 89.336 110.251 89.4725C110.118 89.609 109.962 89.715 109.783 89.7904C109.605 89.8658 109.415 89.9036 109.214 89.9036C109.012 89.9036 108.822 89.8634 108.643 89.7832C108.466 89.7018 108.311 89.5911 108.179 89.451C108.048 89.3109 107.945 89.1456 107.869 88.9553C107.793 88.7649 107.756 88.5583 107.756 88.3356C107.756 88.0986 107.793 87.8842 107.869 87.6927C107.945 87.4999 108.048 87.3346 108.179 87.1969C108.311 87.058 108.466 86.9521 108.643 86.879C108.822 86.8048 109.012 86.7677 109.214 86.7677ZM109.214 85.2806C108.807 85.2806 108.424 85.3578 108.065 85.5123C107.708 85.6667 107.394 85.8799 107.125 86.1517C106.858 86.4223 106.647 86.7443 106.492 87.1179C106.337 87.4915 106.26 87.8974 106.26 88.3356C106.26 88.7667 106.337 89.1684 106.492 89.5408C106.647 89.9119 106.858 90.2334 107.125 90.5052C107.394 90.7758 107.708 90.9896 108.065 91.1464C108.424 91.3021 108.807 91.3799 109.214 91.3799C109.624 91.3799 110.008 91.3021 110.366 91.1464C110.725 90.9896 111.038 90.7758 111.304 90.5052C111.57 90.2334 111.781 89.9119 111.936 89.5408C112.091 89.1684 112.168 88.7667 112.168 88.3356C112.168 87.8758 112.091 87.4586 111.936 87.0838C111.781 86.7078 111.57 86.3863 111.304 86.1193C111.038 85.8511 110.725 85.6446 110.366 85.4997C110.008 85.3536 109.624 85.2806 109.214 85.2806Z" fill="#B45F06"/>
<path fill-rule="evenodd" clip-rule="evenodd" d="M116.856 82.9529C116.716 82.9529 116.585 82.9793 116.464 83.032C116.344 83.0835 116.239 83.1535 116.149 83.2421C116.059 83.3295 115.987 83.4337 115.934 83.5546C115.883 83.6743 115.857 83.8007 115.857 83.9336C115.857 84.0701 115.883 84.1976 115.934 84.3161C115.987 84.4347 116.059 84.5382 116.149 84.6268C116.239 84.7142 116.344 84.7843 116.464 84.837C116.585 84.8885 116.716 84.9142 116.856 84.9142C116.989 84.9142 117.116 84.8885 117.236 84.837C117.357 84.7843 117.462 84.7142 117.549 84.6268C117.638 84.5382 117.708 84.4347 117.76 84.3161C117.813 84.1976 117.839 84.0701 117.839 83.9336C117.839 83.8007 117.813 83.6743 117.76 83.5546C117.708 83.4337 117.638 83.3295 117.549 83.2421C117.462 83.1535 117.357 83.0835 117.236 83.032C117.116 82.9793 116.989 82.9529 116.856 82.9529ZM116.089 85.5015V90.534C116.089 90.728 116.053 90.913 115.981 91.089C115.909 91.265 115.811 91.42 115.686 91.5541C115.562 91.6894 115.416 91.7972 115.247 91.8774C115.077 91.9588 114.894 91.9996 114.696 91.9996L113.88 91.9888V93.4705H114.631C114.901 93.4705 115.161 93.4352 115.412 93.3645C115.662 93.2951 115.895 93.1963 116.113 93.0682C116.331 92.9413 116.53 92.7886 116.71 92.6102C116.89 92.433 117.045 92.2354 117.175 92.0175C117.304 91.8008 117.404 91.5667 117.474 91.3153C117.545 91.0638 117.582 90.8034 117.585 90.534H117.596V85.5015H116.089Z" fill="#B45F06"/>
<path fill-rule="evenodd" clip-rule="evenodd" d="M122.241 82.8937L120.637 84.3862L121.247 85.189L123.127 84.0198L122.241 82.8937ZM118.633 85.5015V88.6913C118.633 89.1044 118.7 89.4773 118.835 89.8102C118.97 90.1419 119.156 90.4238 119.391 90.6561C119.627 90.8872 119.902 91.0656 120.216 91.1913C120.529 91.3171 120.864 91.3799 121.22 91.3799C121.382 91.3799 121.541 91.359 121.697 91.3171C121.854 91.2764 122.007 91.2213 122.155 91.1518C122.302 91.0812 122.443 90.9986 122.578 90.904C122.713 90.8082 122.84 90.7064 122.959 90.5987L123.445 91.2722H123.802V85.5015H122.327V88.6913C122.327 88.8457 122.299 88.996 122.241 89.1421C122.183 89.287 122.104 89.4169 122.003 89.5318C121.903 89.6468 121.784 89.7396 121.649 89.8102C121.514 89.8796 121.371 89.9144 121.22 89.9144C121.065 89.9144 120.92 89.8874 120.785 89.8335C120.65 89.7797 120.532 89.7006 120.432 89.5965C120.331 89.4923 120.25 89.3642 120.19 89.2121C120.132 89.0589 120.102 88.8852 120.102 88.6913V85.5015H118.633Z" fill="#B45F06"/>
<path fill-rule="evenodd" clip-rule="evenodd" d="M127.518 85.3883C127.19 85.3883 126.876 85.447 126.574 85.5643C126.274 85.6805 126.005 85.8463 125.768 86.0618L125.282 85.5015H124.925V91.2721H126.4V87.9746C126.4 87.8237 126.428 87.6812 126.486 87.5471C126.544 87.4118 126.623 87.2939 126.724 87.1933C126.825 87.0927 126.943 87.0137 127.08 86.9562C127.217 86.8988 127.363 86.87 127.518 86.87C127.669 86.87 127.811 86.8988 127.944 86.9562C128.078 87.0137 128.195 87.0927 128.295 87.1933C128.396 87.2939 128.475 87.4118 128.533 87.5471C128.591 87.6812 128.619 87.8237 128.619 87.9746V91.2721H130.094V87.9746C130.094 87.619 130.026 87.2843 129.891 86.9706C129.756 86.6557 129.572 86.3809 129.338 86.1462C129.104 85.9103 128.83 85.7254 128.517 85.5913C128.204 85.456 127.871 85.3883 127.518 85.3883Z" fill="#B45F06"/>
<path fill-rule="evenodd" clip-rule="evenodd" d="M131.887 82.9529C131.75 82.9529 131.621 82.9793 131.5 83.032C131.38 83.0835 131.276 83.1535 131.187 83.2421C131.099 83.3295 131.029 83.4337 130.976 83.5546C130.924 83.6743 130.899 83.8007 130.899 83.9336C130.899 84.0701 130.924 84.1976 130.976 84.3161C131.029 84.4347 131.099 84.5382 131.187 84.6268C131.276 84.7142 131.38 84.7843 131.5 84.837C131.621 84.8885 131.75 84.9142 131.887 84.9142C132.024 84.9142 132.152 84.8885 132.272 84.837C132.394 84.7843 132.499 84.7142 132.589 84.6268C132.679 84.5382 132.75 84.4347 132.802 84.3161C132.854 84.1976 132.881 84.0701 132.881 83.9336C132.881 83.8007 132.854 83.6743 132.802 83.5546C132.75 83.4337 132.679 83.3295 132.589 83.2421C132.499 83.1535 132.394 83.0835 132.272 83.032C132.152 82.9793 132.024 82.9529 131.887 82.9529ZM131.142 85.5015V91.2722H132.627V85.5015H131.142Z" fill="#B45F06"/>
<path fill-rule="evenodd" clip-rule="evenodd" d="M136.386 86.7677C136.588 86.7677 136.777 86.8048 136.955 86.879C137.134 86.9521 137.29 87.058 137.423 87.1969C137.556 87.3346 137.661 87.4999 137.738 87.6927C137.816 87.8842 137.855 88.0986 137.855 88.3356C137.855 88.5691 137.816 88.7828 137.738 88.9768C137.661 89.1708 137.556 89.336 137.423 89.4725C137.29 89.609 137.134 89.715 136.955 89.7904C136.777 89.8658 136.588 89.9036 136.386 89.9036C136.184 89.9036 135.994 89.8634 135.815 89.7832C135.638 89.7018 135.483 89.5911 135.351 89.451C135.22 89.3109 135.117 89.1456 135.041 88.9553C134.966 88.7649 134.928 88.5583 134.928 88.3356C134.928 88.0986 134.966 87.8842 135.041 87.6927C135.117 87.4999 135.22 87.3346 135.351 87.1969C135.483 87.058 135.638 86.9521 135.815 86.879C135.994 86.8048 136.184 86.7677 136.386 86.7677ZM136.386 85.2806C135.979 85.2806 135.596 85.3578 135.237 85.5123C134.88 85.6667 134.567 85.8799 134.298 86.1517C134.03 86.4223 133.819 86.7443 133.664 87.1179C133.509 87.4915 133.432 87.8974 133.432 88.3356C133.432 88.7667 133.509 89.1684 133.664 89.5408C133.819 89.9119 134.03 90.2334 134.298 90.5052C134.567 90.7758 134.88 90.9896 135.237 91.1464C135.596 91.3021 135.979 91.3799 136.386 91.3799C136.797 91.3799 137.181 91.3021 137.538 91.1464C137.897 90.9896 138.21 90.7758 138.476 90.5052C138.743 90.2334 138.953 89.9119 139.108 89.5408C139.263 89.1684 139.34 88.7667 139.34 88.3356C139.34 87.8758 139.263 87.4586 139.108 87.0838C138.953 86.7078 138.743 86.3863 138.476 86.1193C138.21 85.8511 137.897 85.6446 137.538 85.4997C137.181 85.3536 136.797 85.2806 136.386 85.2806Z" fill="#B45F06"/>
<path fill-rule="evenodd" clip-rule="evenodd" d="M140.156 85.5015V91.2721H141.63V88.0931C141.63 87.9387 141.659 87.7932 141.717 87.6567C141.774 87.5202 141.854 87.4017 141.954 87.3011C142.055 87.2005 142.174 87.1215 142.311 87.064C142.448 87.0065 142.594 86.9778 142.748 86.9778H144.05V85.5122H142.748C142.424 85.5122 142.111 85.5709 141.809 85.6883C141.506 85.8044 141.236 85.9702 140.998 86.1857L140.512 85.5015H140.156Z" fill="#B45F06"/>
<path fill-rule="evenodd" clip-rule="evenodd" d="M111.047 46.3509C111.047 35.6067 119.775 26.8969 130.543 26.8969C141.31 26.8969 150.038 35.6067 150.038 46.3509C149.339 36.1206 140.819 28.1787 130.543 28.1787C120.267 28.1787 111.746 36.1206 111.047 46.3509Z" fill="#783F04"/>
</svg>
